<svg data-name="Layer 1" xmlns="http://www.w3.org/2000/svg" width="896" height="747.971"><path d="M41.634 712.738c12.428 23.049 38.806 32.943 38.806 32.943s6.227-27.475-6.201-50.524-38.806-32.944-38.806-32.944-6.227 27.476 6.201 50.525z" fill="#2f2e41"/><path d="M50.177 705.155c22.438 13.5 31.08 40.314 31.08 40.314s-27.738 4.927-50.177-8.573S0 696.582 0 696.582s27.738-4.927 50.177 8.573z" fill="#00bfa6"/><path fill="#f2f2f2" d="M413.248 35.908h140v2h-140z"/><path fill="#f2f2f2" d="M513.249 37.408h2v18.5h-2zm-61.001 0h2v18.5h-2zm32 94.5h140v2h-140z"/><path fill="#f2f2f2" d="M522.249 113.908h2v18.5h-2zm61 0h2v18.5h-2zm87 63h140v2h-140z"/><path fill="#f2f2f2" d="M708.249 158.908h2v18.5h-2zm61 0h2v18.5h-2zm-113 482h140v2h-140z"/><path fill="#f2f2f2" d="M694.249 622.908h2v18.5h-2zm61 0h2v18.5h-2zm-338.001-303h140v2h-140z"/><path fill="#f2f2f2" d="M455.248 301.908h2v18.5h-2zm61.001 0h2v18.5h-2zm-55.001 259h140v2h-140z"/><path fill="#f2f2f2" d="M499.248 542.908h2v18.5h-2zm61.001 0h2v18.5h-2zm125-55h140v2h-140z"/><path fill="#f2f2f2" d="M723.249 469.908h2v18.5h-2zm61 0h2v18.5h-2z"/><path fill="#2f2e41" d="M362.06 702.184H125.274v-1.703h235.082v-82.62H145.18l-10.453-21.777 1.536-.737 9.989 20.81H362.06v86.027z"/><circle cx="156.789" cy="726.033" r="17.887" fill="#3f3d56"/><circle cx="333.101" cy="726.033" r="17.887" fill="#3f3d56"/><circle cx="540.927" cy="346.153" r="11.073" fill="#3f3d56"/><path d="M387.385 589.753H121.237L63.648 401.517h383.045l-.349 1.107zm-264.888-1.703h263.639l58.234-184.83H65.95z" fill="#2f2e41"/><path fill="#f2f2f2" d="M366.61 579.958H132.842L82.26 413.015h336.441l-.306.983-51.785 165.96z"/><path fill="#2f2e41" d="M451.465 384.7l-1.647-.437 11.241-42.369h65.389v1.704H462.37L451.465 384.7zM82.258 458.584h345.293v1.704H82.258zm19.201 62.76h306.319v1.704H101.459z"/><path fill="#2f2e41" d="M254.314 402.368h1.704v186.533h-1.704zm65.743 186.476l12.229-186.529 1.7.112-12.228 186.528zM176.38 402.424l1.7-.11 12.158 186.532-1.7.111zM0 745h896v2H0z"/><path d="M595.41 61.876s14.62 41.606 5.623 48.007 30.361 58.676 30.361 58.676l47.23-12.802-25.864-43.74s-3.374-43.74-3.374-50.141-53.975 0-53.975 0z" fill="#a0616a"/><path d="M595.41 61.876s14.62 41.606 5.623 48.007 30.361 58.676 30.361 58.676l47.23-12.802-25.864-43.74s-3.374-43.74-3.374-50.141-53.975 0-53.975 0z" opacity=".1"/><path d="M570.874 358.454s-4.268 53.341 0 81.079 10.668 104.549 10.668 104.549 0 145.089 23.47 147.222 40.54 4.268 42.673-4.267-10.668-12.802-4.267-17.07 8.535-19.202 0-36.271 0-189.896 0-189.896l40.54 108.817s4.267 89.613 8.534 102.415-4.267 36.272 10.668 38.406 32.005-10.668 40.54-14.936-12.802-4.267-8.535-6.4 17.07-8.535 12.802-10.669-8.535-104.55-8.535-104.55-11.735-218.699-26.67-227.233-24.537 6.165-24.537 6.165z" fill="#2f2e41"/><path d="M609.28 682.77v17.069s-19.203 46.4 0 46.4 34.138 4.808 34.138-1.593v-57.61zm125.885-.03v17.069s19.203 46.399 0 46.399-34.138 4.808-34.138-1.593v-57.608z" fill="#2f2e41"/><circle cx="625.282" cy="54.408" r="38.406" fill="#a0616a"/><path d="M613.547 125.886s10.668 32.004 27.737 25.604l17.07-6.401 29.87 204.83s-23.47 34.139-57.608 12.802-17.07-236.835-17.07-236.835z" fill="#00bfa6"/><path d="M643.418 119.485l9.601-20.27s56.542 26.67 65.077 35.205 8.534 21.337 8.534 21.337l-14.935 53.341s4.267 117.351 4.267 121.619 14.936 27.737 4.267 19.202-12.801-17.069-21.336-4.267-27.738 27.738-27.738 27.738z" fill="#3f3d56"/><path d="M718.096 273.108l-6.401 59.742s-38.406 34.139-29.871 36.272 12.802-6.4 12.802-6.4 14.935 14.935 23.47 6.4 29.871-89.613 29.871-89.613z" fill="#a0616a"/><path d="M626.1.13c-8.514-.305-17.625-.455-24.804 4.133a36.313 36.313 0 00-8.572 8.392c-6.992 8.838-13.033 19.959-10.436 30.925l3.016-1.176a19.75 19.75 0 01-1.905 8.462c.425-1.235 1.848.762 1.467 2.011l-3.323 10.9c5.462-2.002 12.257 2.053 13.088 7.81.38-12.66 1.693-27.18 11.964-34.593 5.18-3.739 11.735-4.88 18.042-5.893 5.818-.935 11.918-1.827 17.49.088s10.32 7.615 9.056 13.371c2.57-.885 5.443.906 6.713 3.309s1.337 5.237 1.375 7.955c2.74 1.936 5.857-1.908 6.973-5.071 2.62-7.424 4.95-15.328 3.538-23.073s-7.724-15.148-15.597-15.174a5.467 5.467 0 001.422-3.849l-6.49-.548a7.172 7.172 0 004.287-2.26C650.798 8.716 630.313.28 626.1.13z" fill="#2f2e41"/><path d="M624.215 113.084s-17.37-17.021-23.62-15.979-14.786 15.979-14.786 15.979-51.207 17.069-49.074 34.138 25.604 100.282 25.604 100.282 19.203 100.282 2.134 110.95 81.079 38.406 83.212 25.604 6.401-140.821 0-160.024-23.47-110.95-23.47-110.95zm74.678 34.138h26.383s18.424 81.08 20.557 89.614 6.401 49.074 4.268 49.074-44.807-8.535-44.807-2.134z" fill="#3f3d56"/><path d="M698 348H597c-9.856-45.34-10.68-89.146 0-131h101c-16.3 41.1-17.318 84.607 0 131z" fill="#f2f2f2"/><path d="M555.938 292.31l29.871 12.803s57.609 8.534 57.609-14.936-57.609-10.668-57.609-10.668l-19.204-6.14z" fill="#a0616a"/><path d="M562.339 134.42l-25.604 6.401-19.203 113.084s-6.4 29.871 4.268 32.005 40.539 19.203 40.539 19.203 4.267-32.005 12.802-32.005l-21.337-17.07 12.802-74.677z" fill="#3f3d56"/><path fill="#f2f2f2" d="M60.248 352.908h140v2h-140z"/><path fill="#f2f2f2" d="M98.249 334.908h2v18.5h-2zm61 0h2v18.5h-2zm-50-278h140v2h-140z"/><path fill="#f2f2f2" d="M209.249 58.408h2v18.5h-2zm-61 0h2v18.5h-2zm102 195.5h140v2h-140z"/><path fill="#f2f2f2" d="M350.248 255.408h2v18.5h-2zm-61 0h2v18.5h-2zm-277-2.5h140v2h-140z"/><path fill="#f2f2f2" d="M112.249 254.408h2v18.5h-2zm-61.001 0h2v18.5h-2zm129.001-101.5h140v2h-140z"/><path fill="#f2f2f2" d="M218.249 134.908h2v18.5h-2zm60.999 0h2v18.5h-2z"/></svg>