<svg xmlns="http://www.w3.org/2000/svg" viewBox="0 0 120 4" preserveAspectRatio="none"><path fill="#e94b4b" d="M120 1.3v.4c-.2 0-.1.2-.2.4-.4.4-.9.7-1.4.8-.4.1-.9.3-1.3.3-.3.3-.7 0-1 .2h-4.4c-1.1 0-2.2-.1-3.3-.1h-.2c-.3-.2-.6-.1-.9-.1s-.6-.1-.9-.1c-.5 0-.9-.1-1.4-.1h-.1c-.2-.2-.5 0-.7-.1-.3-.2-.5-.1-.8-.1h-1c-.3 0-.7.1-1 .1H89.5c-1.3 0-2.6 0-3.9-.1-1.5-.1-3.1 0-4.6 0s-3.1.1-4.6-.1c-.8-.1-1.5-.1-2.3.1-.5.1-1.1 0-1.7 0h-3.2c-1 0-2.1.1-3.2-.1-.4-.1-.8 0-1.2 0h-1.2c-.4 0-.8-.1-1.3-.1h-1.2c-1-.1-2.1.1-3.1.1-1.2 0-2.5-.1-3.7.1-.6.1-1.2 0-1.8.1-.8.1-1.6 0-2.4.1-1.5.1-3-.1-4.5.1-.7.1-1.5 0-2.2 0-.8 0-1.5 0-2.3.1s-1.6 0-2.4 0c-.8 0-1.5 0-2.3.1s-1.5 0-2.3 0-1.5 0-2.3.1c-1.6.1-3.1-.1-4.7.1-1 .1-2-.1-3 .2-.3.1-.6 0-1 .1-.3.1-.6 0-1 .1-.7-.1-1.4.1-2.1-.1-.6-.2-1.3-.3-1.9-.5-.1 0-.2-.1-.4 0-.5.2-1.1.2-1.6.3-.3.1-.7 0-1 0-.4 0-.8-.1-1.1-.2-.4.3-.9.3-1.4.3-.7 0-1.5.1-2.3-.1-.5 0-.9-.1-1.3-.2-.2-.1-.4 0-.6-.1-.2-.1-.4-.1-.7-.1H6.2c-.4-.1-.9 0-1.2.1-.6.2-1.2.2-1.8.2H1c-.2 0-.5 0-.7-.1S0 3.2 0 3c.6-.7 1.4-.9 2.1-1.2.3-.1.7-.1 1-.2.4-.1.8-.1 1.1-.1 1.2-.1 2.4 0 3.6-.1 1.4-.1 2.8.1 4.2-.1.7-.1 1.4 0 2.1 0 .7 0 1.4 0 2.1-.1.8-.1 1.6 0 2.4 0s1.5 0 2.3-.1 1.6 0 2.4 0 1.5 0 2.3-.1c.9-.1 1.7 0 2.6 0s1.7 0 2.6-.1 1.8 0 2.7 0 1.8 0 2.7-.1c1.2-.1 2.4 0 3.7 0 1.2 0 2.5 0 3.7-.1 1.4-.1 2.8 0 4.2 0h4.1c1.4 0 2.8 0 4.2-.1s2.8 0 4.2 0h4.1c1.4 0 2.8 0 4.2-.1 1.4-.1 2.8 0 4.1 0h4.1c1.4 0 2.7.1 4.1-.1.9-.1 1.7 0 2.6 0h7.9c.9 0 1.7-.1 2.6-.1h11.2c1.2 0 2.5-.1 3.7.1.7.1 1.5 0 2.2 0s1.4.1 2.1.1c.8.1 1.6-.1 2.4.1.3.1.6 0 .8 0 .3 0 .5.1.8.1.5 0 .9 0 1.4.1.3.1.7.1.9.3.1 0 .3.1.5.2z"/></svg>