<svg xmlns="http://www.w3.org/2000/svg" viewBox="0 0 16.134 32.974" height="124.625" width="60.98"><path d="M13.654 28.912c.092-.182.004-.673-.263-1.473-.06-.228-.152-.548-.273-.959-.122-.41-.23-.786-.326-1.125-.095-.339-.18-.66-.257-.965a19.268 19.268 0 00-.085-.486 4.558 4.558 0 00-.16-.65 1.062 1.062 0 00-.246-.406c-.153-.152-.451-.234-.896-.245a7.872 7.872 0 00-1.337.08c-.445.065-.883.099-1.313.103-.43.004-.714-.063-.85-.2a1.102 1.102 0 01-.201-.314 3.931 3.931 0 01-.137-.331 6.164 6.164 0 01-.114-.434 8.903 8.903 0 00-.086-.349c-.464-1.622-.696-3.179-.697-4.671 0-1.493.233-3.05.697-4.672.008-.022.037-.139.086-.348.05-.21.087-.354.114-.434.027-.08.073-.19.137-.331a1.09 1.09 0 01.2-.314c.137-.137.42-.204.851-.2.43.004.868.038 1.313.103.446.065.891.091 1.337.08.445-.011.744-.093.896-.246.106-.106.189-.241.246-.405.057-.164.11-.38.16-.651.049-.27.077-.432.085-.486.076-.304.162-.626.257-.965.095-.339.204-.714.326-1.125.121-.41.213-.73.274-.96.266-.798.354-1.29.262-1.472a.896.896 0 00-.205-.274c-.206-.206-.512-.436-.92-.691-.407-.255-.748-.436-1.022-.543-.54-.22-1.408-.16-2.604.183-1.104.327-2.006.841-2.706 1.542a6.204 6.204 0 00-.56.64c-.168.22-.339.486-.514.799-.175.312-.3.548-.377.708-.076.16-.21.449-.4.868-.19.418-.308.673-.354.765a14.617 14.617 0 00-1.05 2.946c-.374 1.576-.56 3.404-.56 5.483 0 2.078.186 3.906.56 5.482.22.952.57 1.934 1.05 2.947.046.09.163.346.354.765.19.418.323.708.4.868.075.16.201.396.376.708.175.312.346.579.514.8.168.22.354.434.56.64.7.7 1.602 1.214 2.706 1.541 1.196.343 2.063.403 2.604.183.274-.107.615-.288 1.023-.543.407-.255.713-.485.919-.69a.904.904 0 00.206-.276" stroke="#00f400" stroke-width="4.76253" paint-order="stroke fill markers"/></svg>