<?xml version="1.0" encoding="utf-8"?>
<!-- Generator: Adobe Illustrator 18.1.1, SVG Export Plug-In . SVG Version: 6.00 Build 0)  -->
<!DOCTYPE svg PUBLIC "-//W3C//DTD SVG 1.1//EN" "http://www.w3.org/Graphics/SVG/1.1/DTD/svg11.dtd">
<svg version="1.1" id="Layer_1" xmlns="http://www.w3.org/2000/svg" xmlns:xlink="http://www.w3.org/1999/xlink" x="0px" y="0px"
	 viewBox="0 0 300 206" enable-background="new 0 0 300 206" xml:space="preserve">
<g>
	<path fill="#FFFFFF" d="M199.2,125.7c-2.6-1.4-4.6-3.2-6-5.3c-1.2-2.1-1.9-4.5-2.3-7.2c-0.4-2.7-0.6-6.6-0.6-11.9V14.5l-2.5,0.1
		c-2,0.5-3.6,0.9-4.8,1.4c-1.1,0.4-2.2,0.9-3.1,1.5c-1,0.6-1.9,1.3-2.7,2.1c-1.1,1.1-2.4,2.4-3.8,3.9c-4.2,4.9-8.8,11.1-13.4,18.3
		c-4.7,7.3-9.1,15.1-13.2,23.2l-7.4,14.9v26.3c0,8.1,0.5,14.3,1.4,18.6c1,4.3,2.6,8.1,4.9,11.4c2.7,3.8,6.6,6.9,11.8,9.1
		c5.2,2.2,10.6,3.3,16.2,3.3c5.8,0,11.8-1,18-2.9c13.2-3.9,19.4-13.9,26.1-20.5c-3.3,1.7-6.7,2.6-10.2,2.6
		C204.7,127.8,201.8,127.1,199.2,125.7"/>
	<path fill="#FFFFFF" d="M2.1,3.9L2.1,3.9L2.1,3.9C2.3,4,2.4,4.1,2.6,4.1C2.7,4.1,2.7,4,2.8,4c3.9,0.4,6.9,0.9,9,1.6
		c2.2,0.8,4.4,2.1,6.5,4c1.1,1.2,2.2,2.2,3,3.2c0.9,1,1.8,2.2,2.8,3.6c1,1.4,2,3.3,3.2,5.6c1.2,2.3,2.7,5.4,4.6,9.2l52.8,100.9
		l22.6-45.4c1.9-3.6,3.5-6.9,5-10L90.2,37.1c-2.1-4-3.7-7.9-4.6-11.6c-1-3.7-1.4-6.7-1.4-9.3c0-7.6,4-11.7,12.1-12.4
		c0.1,0,0.2,0.1,0.3,0.1c1,0,1.8-0.8,1.8-1.8c0-1-0.8-1.8-1.8-1.8v0H2.1v0.2C1.4,0.8,0.7,1.4,0.7,2.3C0.7,3.1,1.4,3.7,2.1,3.9"/>
	<path fill="#FFFFFF" d="M165.1,16.3c1.7-1.9,3.3-3.5,4.6-4.8c1.3-1.3,2.8-2.3,4.3-3.3c1.5-1,3.2-1.8,4.9-2.4c1.5-0.6,4-1.2,6.3-1.7
		c0,0,0,0,0,0c0.1,0,0.1-0.1,0.2-0.1c0.2-0.1,0.5-0.1,0.7-0.2l0-0.1c0.6-0.3,1-0.8,1-1.5c0-1-0.8-1.8-1.8-1.8h-65.6l0,0.1
		c-0.1,0-0.2-0.1-0.3-0.1c-1,0-1.8,0.8-1.8,1.8c0,0.8,0.6,1.4,1.4,1.6l0,0.1c6.7,1.7,12.3,4.4,15,8.3c2.7,3.8,4,9.8,4,17.9
		c0,4.2-0.3,8.3-0.9,12.1c-0.6,3.9-1.6,8-3.2,12.6c-1.6,4.5-3.7,9.7-6.4,15.6c-2.7,5.9-6.2,13-10.4,21.2l-27.7,55.8l-3.2,6.4
		c-3.9,7.7-7.5,13.2-11,16.6c-3.5,3.4-7.2,5-11.3,5c-3.7,0-7-1.7-10.1-5.2c-0.6-0.6-1.1-1.3-1.7-2.2c-0.6-0.9-1.3-1.8-2.3-2.8
		c-3.9-5.2-7.5-8.8-11-10.8c-3.5-2-7.7-3-12.7-3c-7.3,0-13.4,2.3-18.2,7.1c-4.8,4.7-7.2,10.6-7.2,17.8c0,8.7,3.1,15.7,9.4,21.1
		c6.2,5.4,14.4,8.1,24.4,8.1c10.4,0,19.7-3.5,28-10.4c8.3-6.9,16.1-17.9,23.4-32.8L137,60.1c4.2-8.5,8.8-16.5,13.7-24.2
		C155.7,28.2,160.4,21.7,165.1,16.3"/>
	<path fill="#FFFFFF" d="M280.5,125.7c-2.6-1.4-4.6-3.2-6-5.3c-1.2-2.1-1.9-4.5-2.3-7.2c-0.4-2.7-0.6-6.6-0.6-11.9V0.4h-64.6
		c-2.1,0.1-7.5,0.1-7.7,0.1c-0.9,0-1.6,0.7-1.6,1.6c0,0.7,0.5,1.2,1.1,1.4v0.2c0.2,0,0.3,0,0.5,0c0,0,0,0,0,0h0
		c6.1,0.4,10.5,1.5,13.3,3.3c2.9,1.8,5,5.2,6.4,10c0.4,1.5,0.7,2.9,0.9,4c0.2,1.1,0.4,2.5,0.6,3.9c0.2,1.4,0.3,3.2,0.3,5.3v7.5v68.4
		c0,8.1,0.5,14.3,1.4,18.6c1,4.3,2.6,8.1,4.9,11.4c2.7,3.8,6.6,6.9,11.8,9.1c5.2,2.2,10.6,3.3,16.2,3.3c5.8,0,11.8-1,18-2.9
		c13.2-3.9,19.4-13.9,26.1-20.5c-3.3,1.7-6.7,2.6-10.2,2.6C286,127.8,283.2,127.1,280.5,125.7"/>
	<path fill="#FFFFFF" d="M103,180.7c0-0.8,0.6-1.4,1.4-1.4c0.8,0,1.4,0.6,1.4,1.4v2c1.3-1.9,3-3.6,6.2-3.6c3.1,0,5.1,1.7,6.1,3.8
		c1.4-2.1,3.4-3.8,6.7-3.8c4.4,0,7.1,3,7.1,7.7v10.6c0,0.8-0.6,1.4-1.4,1.4c-0.8,0-1.4-0.6-1.4-1.4v-9.9c0-3.7-1.8-5.8-4.9-5.8
		c-2.9,0-5.2,2.1-5.2,5.9v9.7c0,0.8-0.6,1.4-1.4,1.4c-0.8,0-1.4-0.6-1.4-1.4v-10c0-3.6-1.9-5.7-4.9-5.7c-3,0-5.3,2.5-5.3,6v9.6
		c0,0.8-0.6,1.4-1.4,1.4c-0.8,0-1.4-0.6-1.4-1.4V180.7z"/>
	<path fill="#FFFFFF" d="M150.7,191.5v-1.8c-1.4-0.4-3.3-0.8-5.6-0.8c-3.6,0-5.6,1.6-5.6,4v0.1c0,2.4,2.2,3.8,4.8,3.8
		C147.8,196.7,150.7,194.5,150.7,191.5 M136.7,193L136.7,193c0-4.1,3.3-6.2,8.2-6.2c2.4,0,4.2,0.3,5.9,0.8v-0.7
		c0-3.4-2.1-5.2-5.7-5.2c-1.9,0-3.5,0.4-4.9,1.1c-0.2,0.1-0.4,0.1-0.5,0.1c-0.7,0-1.3-0.6-1.3-1.2c0-0.6,0.4-1,0.8-1.2
		c1.9-0.8,3.8-1.3,6.2-1.3c2.7,0,4.8,0.7,6.2,2.1c1.3,1.3,2,3.1,2,5.6v10.4c0,0.8-0.6,1.4-1.4,1.4c-0.8,0-1.4-0.6-1.4-1.3v-1.7
		c-1.3,1.7-3.5,3.3-6.9,3.3C140.2,198.9,136.7,196.9,136.7,193"/>
	<path fill="#FFFFFF" d="M174.9,188.1L174.9,188.1c0-4-3.4-6.5-7-6.5c-3.6,0-6.6,2.5-6.6,6.4v0.1c0,3.8,3.1,6.5,6.6,6.5
		C171.5,194.5,174.9,191.9,174.9,188.1 M159.9,202.2c-0.4-0.2-0.7-0.7-0.7-1.2c0-0.6,0.6-1.3,1.3-1.3c0.3,0,0.4,0.1,0.6,0.2
		c2,1.3,4.3,2.1,6.8,2.1c4.2,0,6.9-2.3,6.9-6.8V193c-1.7,2.2-4,4-7.5,4c-4.6,0-9-3.4-9-8.9V188c0-5.6,4.4-9,9-9
		c3.6,0,5.9,1.8,7.5,3.8v-2.2c0-0.8,0.6-1.4,1.4-1.4c0.8,0,1.4,0.7,1.4,1.4v14.5c0,3-0.9,5.2-2.4,6.8c-1.7,1.7-4.2,2.5-7.3,2.5
		C165,204.5,162.3,203.7,159.9,202.2"/>
	<path fill="#FFFFFF" d="M196.6,191.5v-1.8c-1.4-0.4-3.3-0.8-5.6-0.8c-3.6,0-5.6,1.6-5.6,4v0.1c0,2.4,2.2,3.8,4.8,3.8
		C193.7,196.7,196.6,194.5,196.6,191.5 M182.5,193L182.5,193c0-4.1,3.3-6.2,8.2-6.2c2.4,0,4.2,0.3,5.9,0.8v-0.7
		c0-3.4-2.1-5.2-5.7-5.2c-1.9,0-3.5,0.4-4.9,1.1c-0.2,0.1-0.4,0.1-0.5,0.1c-0.7,0-1.3-0.6-1.3-1.2c0-0.6,0.4-1,0.8-1.2
		c1.9-0.8,3.8-1.3,6.2-1.3c2.7,0,4.8,0.7,6.2,2.1c1.3,1.3,2,3.1,2,5.6v10.4c0,0.8-0.6,1.4-1.4,1.4c-0.8,0-1.4-0.6-1.4-1.3v-1.7
		c-1.3,1.7-3.5,3.3-6.9,3.3C186.1,198.9,182.5,196.9,182.5,193"/>
	<path fill="#FFFFFF" d="M204.2,197.4L204.2,197.4c0-0.6,0.2-0.9,0.6-1.4l12.1-14.2h-11.2c-0.7,0-1.2-0.5-1.2-1.2
		c0-0.7,0.6-1.2,1.2-1.2h13.6c0.8,0,1.4,0.5,1.4,1.1v0.1c0,0.5-0.2,0.9-0.6,1.3l-12.1,14.2h11.6c0.7,0,1.2,0.6,1.2,1.2
		c0,0.7-0.6,1.2-1.2,1.2h-14.1C204.8,198.5,204.2,198,204.2,197.4"/>
	<path fill="#FFFFFF" d="M226.1,180.7c0-0.8,0.6-1.4,1.4-1.4c0.8,0,1.4,0.6,1.4,1.4v16.6c0,0.8-0.6,1.4-1.4,1.4
		c-0.8,0-1.4-0.6-1.4-1.4V180.7z M225.8,173.4c0-0.9,0.7-1.5,1.7-1.5c1,0,1.7,0.6,1.7,1.5v0.5c0,0.9-0.7,1.5-1.7,1.5
		c-0.9,0-1.7-0.6-1.7-1.5V173.4z"/>
	<path fill="#FFFFFF" d="M235.5,180.7c0-0.8,0.6-1.4,1.4-1.4c0.8,0,1.4,0.6,1.4,1.4v2.1c1.3-2.1,3.3-3.7,6.5-3.7
		c4.6,0,7.3,3.1,7.3,7.6v10.6c0,0.8-0.6,1.4-1.4,1.4c-0.8,0-1.4-0.6-1.4-1.4v-9.9c0-3.5-1.9-5.8-5.3-5.8c-3.3,0-5.7,2.4-5.7,6v9.7
		c0,0.8-0.6,1.4-1.4,1.4c-0.8,0-1.4-0.6-1.4-1.4V180.7z"/>
	<path fill="#FFFFFF" d="M272.3,187.9c-0.3-3.5-2.3-6.5-6.1-6.5c-3.3,0-5.8,2.8-6.2,6.5H272.3z M266.6,199c-5.2,0-9.5-4-9.5-9.9V189
		c0-5.5,3.9-9.9,9.2-9.9c5.6,0,8.9,4.6,8.9,9.7c0,0.8-0.6,1.3-1.3,1.3H260c0.4,4.1,3.3,6.5,6.7,6.5c2.4,0,4.1-0.9,5.5-2.2
		c0.2-0.2,0.5-0.3,0.8-0.3c0.7,0,1.3,0.6,1.3,1.2c0,0.3-0.1,0.7-0.4,0.9C272,197.8,269.9,199,266.6,199"/>
</g>
<g>
</g>
<g>
</g>
<g>
</g>
<g>
</g>
<g>
</g>
<g>
</g>
<g>
</g>
<g>
</g>
<g>
</g>
<g>
</g>
<g>
</g>
<g>
</g>
<g>
</g>
<g>
</g>
<g>
</g>
</svg>
