<svg style="display: none;"><symbol viewBox="0 0 10 28" id="icon-angle-left"><title>angle-left</title><path d="M9.797 8.5q0 .203-.156.36L3.5 15l6.14 6.14q.157.157.157.36t-.156.36l-.78.78q-.15.156-.36.156t-.353-.156l-7.28-7.28q-.16-.158-.16-.36t.157-.36l7.283-7.28q.156-.156.36-.156t.358.156l.78.78q.158.157.158.36z"/></symbol><symbol viewBox="0 0 10 28" id="icon-angle-right"><title>angle-right</title><path d="M9.297 15q0 .203-.156.36l-7.28 7.28q-.15.156-.36.156t-.353-.156l-.78-.78Q.21 21.703.21 21.5t.155-.36L6.505 15 .36 8.86Q.2 8.702.2 8.5t.157-.36l.78-.78q.157-.156.36-.156t.36.156l7.28 7.28q.156.157.156.36z"/></symbol><symbol viewBox="0 0 28 28" id="icon-arrow-circle-left"><title>arrow-circle-left</title><path d="M20 15v-2q0-.406-.297-.703T19 12h-7.844l2.953-2.953q.29-.297.29-.703t-.296-.703L12.68 6.22q-.28-.28-.702-.28t-.703.28L4.203 13.3q-.28.28-.28.702t.28.703l7.078 7.078q.286.282.708.282t.703-.28l1.42-1.423q.28-.282.28-.704t-.28-.703L11.156 16H19q.406 0 .703-.297T20 15zm4-1q0 3.266-1.61 6.023t-4.366 4.367T12 26t-6.02-1.61-4.37-4.367T.003 14t1.61-6.023T5.977 3.61 12 2t6.024 1.61 4.367 4.367T24 14z"/></symbol><symbol viewBox="0 0 28 28" id="icon-arrow-circle-right"><title>arrow-circle-right</title><path d="M20.078 14q0-.422-.28-.703l-7.08-7.078q-.28-.287-.702-.287t-.703.28L9.89 7.643q-.28.28-.28.703t.28.703L12.845 12H5q-.406 0-.703.297T4 13v2q0 .406.297.703T5 16h7.844L9.89 18.953q-.296.297-.296.703t.297.703l1.428 1.42q.28.28.703.28t.703-.28L19.8 14.7q.28-.28.28-.7zM24 14q0 3.266-1.61 6.023t-4.366 4.367T12 26t-6.02-1.61-4.37-4.367T.003 14t1.61-6.023T5.977 3.61 12 2t6.024 1.61 4.367 4.367T24 14z"/></symbol><symbol viewBox="0 0 28 28" id="icon-bars"><title>bars</title><path d="M24 21v2q0 .406-.297.703T23 24H1q-.406 0-.703-.297T0 23v-2q0-.406.297-.703T1 20h22q.406 0 .703.297T24 21zm0-8v2q0 .406-.297.703T23 16H1q-.406 0-.703-.297T0 15v-2q0-.406.297-.703T1 12h22q.406 0 .703.297T24 13zm0-8v2q0 .406-.297.703T23 8H1q-.406 0-.703-.297T0 7V5q0-.406.297-.703T1 4h22q.406 0 .703.297T24 5z"/></symbol><symbol viewBox="0 0 28 28" id="icon-chevron-circle-left"><title>chevron-circle-left</title><path d="M14.203 21.797l1.594-1.594q.297-.297.297-.703t-.297-.703L11 14l4.797-4.797q.297-.297.297-.703t-.297-.703l-1.594-1.594q-.297-.297-.703-.297t-.703.297l-7.094 7.094q-.297.297-.297.703t.297.703l7.094 7.094q.297.297.703.297t.703-.297zM24 14q0 3.266-1.61 6.023t-4.366 4.367T12 26t-6.02-1.61-4.37-4.367T.003 14t1.61-6.023T5.977 3.61 12 2t6.024 1.61 4.367 4.367T24 14z"/></symbol><symbol viewBox="0 0 28 28" id="icon-chevron-circle-right"><title>chevron-circle-right</title><path d="M11.203 21.797l7.094-7.094q.297-.297.297-.703t-.297-.703l-7.094-7.094q-.297-.297-.703-.297t-.703.297L8.203 7.797q-.297.297-.297.703t.297.703L13 14l-4.797 4.797q-.297.297-.297.703t.297.703l1.594 1.594q.297.297.703.297t.703-.297zM24 14q0 3.266-1.61 6.023t-4.366 4.367T12 26t-6.02-1.61-4.37-4.367T.003 14t1.61-6.023T5.977 3.61 12 2t6.024 1.61 4.367 4.367T24 14z"/></symbol><symbol viewBox="0 0 20 28" id="icon-chevron-left"><title>chevron-left</title><path d="M18.297 4.703L10 13l8.297 8.297q.297.297.297.703t-.297.703l-2.594 2.594q-.297.297-.703.297t-.703-.297L2.703 13.703q-.297-.297-.297-.703t.297-.703L14.297.703q.297-.297.703-.297t.703.297l2.594 2.594q.297.297.297.703t-.297.703z"/></symbol><symbol viewBox="0 0 20 28" id="icon-chevron-right"><title>chevron-right</title><path d="M17.297 13.703L5.703 25.297q-.297.297-.703.297t-.703-.297l-2.594-2.594q-.297-.297-.297-.703t.297-.703L10 13 1.703 4.703Q1.406 4.406 1.406 4t.297-.703L4.297.703Q4.594.406 5 .406t.703.297l11.594 11.594q.297.297.297.703t-.297.703z"/></symbol><symbol viewBox="0 0 28 28" id="icon-envelope"><title>envelope</title><path d="M28 11.094V23.5q0 1.03-.734 1.766T25.5 26h-23q-1.03 0-1.766-.734T0 23.5V11.094q.688.766 1.578 1.36 5.656 3.843 7.766 5.39.89.656 1.445 1.023t1.47.75 1.72.383h.03q.798 0 1.72-.383t1.477-.75 1.445-1.023q2.656-1.922 7.78-5.39.892-.61 1.564-1.36zM28 6.5q0 1.234-.766 2.36t-1.906 1.92l-7.313 5.08q-.156.108-.664.476t-.84.594-.81.508-.9.422-.78.14h-.03q-.36 0-.78-.14t-.9-.422-.81-.508-.846-.594-.663-.477q-1.423-1-4.095-2.858T2.69 10.78q-.97-.656-1.83-1.805T.003 6.842q0-1.22.648-2.03T2.508 4h23q1.016 0 1.758.732t.743 1.766z"/></symbol><symbol viewBox="0 0 28 28" id="icon-facebook-square"><title>facebook-square</title><path d="M19.5 2q1.86 0 3.18 1.32T24 6.5v15q0 1.86-1.32 3.18T19.5 26h-2.938v-9.297h3.11l.468-3.625h-3.578v-2.312q0-.875.367-1.313t1.43-.438L20.26 9V5.764q-.984-.14-2.78-.14-2.126 0-3.4 1.25t-1.272 3.53v2.672H9.69V16.7h3.125V26H4.5q-1.86 0-3.18-1.32T0 21.5v-15q0-1.86 1.32-3.18T4.5 2h15z"/></symbol><symbol viewBox="0 0 16 28" id="icon-facebook"><title>facebook</title><path d="M14.984.187v4.125H12.53q-1.343 0-1.812.562t-.47 1.687v2.96h4.58l-.61 4.625h-3.97V26H5.47V14.14H1.484V9.514h3.984V6.108q0-2.906 1.625-4.508T11.42-.002q2.298 0 3.564.187z"/></symbol><symbol viewBox="0 0 26 28" id="icon-github-alt"><title>github-alt</title><path d="M10 19q0 .625-.195 1.28t-.672 1.19T8 22t-1.133-.53-.672-1.19T6 19t.195-1.28.672-1.19T8 16t1.133.53.672 1.19T10 19zm10 0q0 .625-.195 1.28t-.672 1.19T18 22t-1.133-.53-.672-1.19T16 19t.195-1.28.672-1.19T18 16t1.133.53.672 1.19T20 19zm2.5 0q0-1.875-1.078-3.187T18.5 14.5q-.64 0-3.047.328Q14.343 15 13 15t-2.453-.172Q8.172 14.5 7.5 14.5q-1.844 0-2.922 1.313T3.5 19q0 1.375.5 2.398t1.266 1.61 1.906.937 2.188.46 2.328.11h2.625q1.28 0 2.328-.11t2.19-.46 1.91-.938 1.26-1.61.5-2.397zm3.5-2.75q0 3.234-.953 5.172-.594 1.203-1.648 2.078t-2.21 1.344-2.655.742-2.68.344-2.61.07q-1.22 0-2.22-.047t-2.304-.195-2.382-.47-2.14-.804-1.89-1.266T.97 21.42Q0 19.5 0 16.25q0-3.704 2.126-6.19-.422-1.28-.422-2.655 0-1.813.797-3.406 1.69 0 2.97.61t2.954 1.93Q10.72 6 13.25 6q2.31 0 4.374.5 1.64-1.282 2.922-1.892t2.953-.61q.79 1.595.79 3.407 0 1.36-.42 2.625Q26 12.53 26 16.25z"/></symbol><symbol viewBox="0 0 28 28" id="icon-github-square"><title>github-square</title><path d="M6.156 21.125q-.125.14-.313-.047-.203-.172-.063-.297.125-.14.313.05.187.17.063.3zm-.656-.953q.14.187 0 .297-.125.09-.266-.11t0-.28q.14-.11.266.09zm-.953-.938q-.078.11-.203.03-.156-.077-.11-.186.048-.078.204-.03.156.077.11.186zm.484.532q-.09.11-.25-.047-.14-.178-.03-.25.1-.1.25.04.14.173.03.25zm2.02 1.75q-.06.187-.295.094-.265-.063-.202-.234t.298-.11q.25.08.204.25zm.986.078q0 .172-.25.172-.265.03-.265-.172 0-.172.25-.172.266-.03.266.172zm.907-.156q.03.156-.22.22t-.28-.126.22-.234q.25-.03.28.14zM24 6.5v15q0 1.86-1.32 3.18T19.5 26H16q-.25 0-.383-.016t-.305-.078-.25-.227-.078-.43v-3.74q0-1.517-.812-2.22.89-.094 1.602-.28t1.47-.61 1.265-1.04.822-1.64.32-2.352q0-1.89-1.234-3.22.58-1.42-.125-3.186-.438-.14-1.266.172t-1.437.687l-.594.38q-1.453-.406-3-.406t-3 .406q-.25-.172-.664-.422t-1.305-.6-1.343-.21Q5 8.735 5.577 10.156q-1.232 1.328-1.232 3.22 0 1.327.32 2.343t.82 1.64 1.258 1.046 1.47.61 1.6.28q-.624.562-.765 1.61-.328.155-.703.233t-.89.074-1.024-.336-.86-.978q-.298-.5-.76-.812t-.773-.374l-.313-.047q-.327 0-.452.07t-.076.18.14.22.203.184l.11.08q.342.155.68.593t.49.797l.156.36q.203.593.688.96t1.048.47 1.086.108.87-.053l.36-.063q0 .594.006 1.61t.007 1.06q0 .345-.172.524t-.343.2-.517.023H4.5q-1.858 0-3.18-1.32T0 21.495v-15q0-1.86 1.32-3.18t3.18-1.32h15q1.86 0 3.18 1.32T24 6.496z"/></symbol><symbol viewBox="0 0 28 28" id="icon-google-plus-square"><title>google-plus-square</title><path d="M12.953 19.03q0 1.19-.914 1.76t-2.18.57q-.647 0-1.26-.15t-1.18-.444-.91-.828-.344-1.22q0-.718.39-1.25t1.024-.804 1.28-.39 1.32-.118q.315 0 .486.03.03.017.36.26t.404.296.36.28.383.345.297.352.266.4.14.414.07.49zm-1.156-8.514q0 .938-.516 1.555t-1.43.62q-.83 0-1.454-.66T7.5 10.52 7.22 8.86q0-.952.5-1.624t1.438-.672q.828 0 1.46.703t.907 1.578.273 1.672zM13.453 6.5l1.375-1h-4.14q-1.33 0-2.517.5T6.18 7.53t-.806 2.392q0 1.453 1.008 2.414t2.477.96q.34 0 .67-.046-.207.453-.207.844 0 .688.625 1.47-2.734.186-4.016.983-.734.453-1.18 1.14t-.445 1.485q0 .672.29 1.21t.757.884 1.077.578 1.21.328 1.197.094q.94 0 1.886-.242t1.773-.72 1.34-1.288.518-1.828q0-.766-.315-1.398t-.767-1.04-.907-.74-.765-.69-.312-.694.243-.664.587-.617.69-.656.586-.93.24-1.29q0-.94-.352-1.56T12.15 6.5h1.298zm4.547 7h2v-1h-2v-2h-1v2h-2v1h2V16h1v-2.5zm6-7v15q0 1.86-1.32 3.18T19.5 26h-15q-1.86 0-3.18-1.32T0 21.5v-15q0-1.86 1.32-3.18T4.5 2h15q1.86 0 3.18 1.32T24 6.5z"/></symbol><symbol viewBox="0 0 26 28" id="icon-google-plus"><title>google-plus</title><path d="M11.484 12.437q0 .562.5 1.102t1.21 1.06 1.415 1.15 1.2 1.62.5 2.22q0 1.404-.75 2.7-1.128 1.907-3.3 2.806T7.61 26q-2.064 0-3.853-.65t-2.68-2.147Q.5 22.265.5 21.156q0-1.266.694-2.344t1.852-1.797q2.047-1.28 6.312-1.563-.5-.656-.742-1.156t-.242-1.14q0-.563.328-1.33-.72.064-1.062.064-2.312 0-3.898-1.508t-1.586-3.82q0-1.28.562-2.484T4.265 2.03Q5.468 1 7.117.5t3.398-.5h6.53L14.89 1.375h-2.047q1.156.984 1.75 2.078t.594 2.5q0 1.125-.383 2.023t-.922 1.453-1.086 1.01-.93.96-.383 1.032zm-2.28-1.5q.593 0 1.218-.257t1.03-.68q.83-.89.83-2.484 0-.906-.267-1.953t-.758-2.023-1.32-1.617-1.828-.64q-.66 0-1.29.304t-1.028.82q-.734.922-.734 2.5 0 .72.156 1.523t.49 1.61.813 1.444T7.69 10.53t1.508.41zm.03 13.64q.906 0 1.742-.202t1.547-.61 1.14-1.14.43-1.703q0-.39-.108-.766t-.227-.656-.422-.648-.46-.547-.603-.54-.57-.452-.648-.47-.57-.405q-.25-.03-.75-.03-.828 0-1.64.108t-1.68.39-1.517.72-1.07 1.164-.422 1.648q0 1.094.547 1.93t1.43 1.297 1.86.688 1.99.227zM21.89 10.892h3.33v1.688h-3.33V16h-1.64v-3.422h-3.313V10.89h3.313V7.5h1.64v3.39z"/></symbol><symbol viewBox="0 0 28 28" id="icon-instagram"><title>instagram</title><path d="M21.28 22.28V12.157h-2.108q.313.984.313 2.047 0 1.97-1 3.633t-2.72 2.633-3.75.968q-3.077 0-5.265-2.117t-2.188-5.11q0-1.062.313-2.047H2.672v10.125q0 .406.273.68t.68.273h16.703q.39 0 .672-.272t.28-.68zm-4.436-8.327q0-1.937-1.414-3.305T12.016 9.28q-1.984 0-3.398 1.368t-1.414 3.305 1.414 3.305 3.398 1.367q2 0 3.414-1.367t1.414-3.305zm4.437-5.625V5.75q0-.438-.31-.758t-.763-.32h-2.72q-.452 0-.765.32t-.313.758v2.578q0 .453.312.766t.764.313h2.72q.452 0 .765-.313t.31-.766zM24 5.078v17.844q0 1.266-.906 2.172T20.922 26H3.078q-1.266 0-2.172-.906T0 22.922V5.078q0-1.266.906-2.172T3.078 2h17.844q1.266 0 2.172.906T24 5.078z"/></symbol><symbol viewBox="0 0 28 28" id="icon-linkedin-square"><title>linkedin-square</title><path d="M3.703 22.094h3.61V11.25h-3.61v10.844zM7.547 7.906q-.016-.812-.562-1.344t-1.453-.53-1.477.53-.57 1.344q0 .797.555 1.336t1.445.54H5.5q.923 0 1.485-.54t.562-1.336zm9.14 14.188h3.61v-6.22q0-2.405-1.14-3.64T16.14 11q-2.125 0-3.266 1.828h.03V11.25H9.297q.047 1.03 0 10.844h3.61v-6.062q0-.594.108-.875.234-.547.703-.93t1.156-.383q1.813 0 1.813 2.453v5.797zM24 6.5v15q0 1.86-1.32 3.18T19.5 26h-15q-1.86 0-3.18-1.32T0 21.5v-15q0-1.86 1.32-3.18T4.5 2h15q1.86 0 3.18 1.32T24 6.5z"/></symbol><symbol viewBox="0 0 28 28" id="icon-linkedin"><title>linkedin</title><path d="M5.453 9.766V25.25H.297V9.766h5.156zm.328-4.782q.02 1.14-.783 1.906t-2.117.766h-.03q-1.283 0-2.065-.766T0 4.984Q0 3.828.805 3.07t2.102-.758 2.078.758.797 1.914zM24 16.374v8.876h-5.14v-8.28q0-1.642-.634-2.57t-1.977-.93q-.99 0-1.65.538t-.99 1.336q-.178.47-.178 1.266v8.64h-5.14q.03-6.233.03-10.108t-.016-4.625l-.016-.75h5.14v2.25h-.03q.314-.5.64-.875t.885-.812 1.357-.68 1.79-.242q2.67 0 4.296 1.773t1.63 5.2z"/></symbol><symbol viewBox="0 0 20 28" id="icon-pinterest-p"><title>pinterest-p</title><path d="M0 9.328q0-1.687.586-3.18t1.617-2.602 2.375-1.922 2.89-1.22T10.626 0q2.47 0 4.594 1.038t3.45 3.022T20 8.546q0 1.5-.297 2.938t-.938 2.766-1.563 2.335-2.266 1.61-2.953.6q-1.062 0-2.11-.5t-1.5-1.374q-.155.61-.437 1.76T7.57 20.17t-.32 1.11-.41 1.108-.5.978-.72 1.21-.97 1.354l-.22.08-.14-.157q-.234-2.453-.234-2.94 0-1.436.336-3.226t1.04-4.49.81-3.173q-.5-1.016-.5-2.64 0-1.3.813-2.44T8.62 5.8q.953 0 1.484.632t.53 1.602q0 1.03-.687 2.983t-.69 2.922q0 .98.704 1.63t1.706.65q.86 0 1.594-.39t1.227-1.066.873-1.484.594-1.726.313-1.734.103-1.555q0-2.703-1.71-4.21T10.2 2.542q-3.124 0-5.218 2.024T2.888 9.7q0 .688.195 1.328t.422 1.016.422.71.195.478q0 .438-.234 1.14t-.578.704q-.03 0-.266-.047-.797-.24-1.414-.88T.677 12.67.17 10.99t-.173-1.664z"/></symbol><symbol viewBox="0 0 28 28" id="icon-pinterest-square"><title>pinterest-square</title><path d="M19.5 2q1.86 0 3.18 1.32T24 6.5v15q0 1.86-1.32 3.18T19.5 26H8.172Q9.5 24.094 9.86 22.72q.14-.532.827-3.267.328.61 1.148 1.047t1.758.438q2.828 0 4.617-2.305T20 12.797q0-1.313-.548-2.54t-1.508-2.17T15.56 6.57 12.484 6q-1.625 0-3.04.445T7.054 7.64t-1.68 1.71-1.04 2T4 13.42q0 1.595.617 2.813t1.82 1.72q.203.077.367 0t.227-.298q.16-.688.238-.953.094-.36-.172-.656-.78-.97-.78-2.344 0-2.344 1.617-4.008T12.16 8.03q2.327 0 3.632 1.266t1.303 3.28q0 2.626-1.055 4.47t-2.71 1.844q-.94 0-1.518-.68t-.36-1.617q.126-.53.415-1.445t.46-1.594.173-1.164q0-.766-.414-1.273t-1.18-.508q-.953 0-1.617.88t-.667 2.18q0 1.122.375 1.89l-1.53 6.47q-.38 1.56-.113 3.97H4.5q-1.858 0-3.18-1.32T0 21.5v-15q0-1.86 1.32-3.18T4.5 2h15z"/></symbol><symbol viewBox="0 0 28 28" id="icon-rss-square"><title>rss-square</title><path d="M8 20q0-.828-.586-1.414T6 18t-1.414.586T4 20t.586 1.414T6 22t1.414-.586T8 20zm5.484 1.47q-.203-3.626-2.766-6.19T4.53 12.516q-.22-.016-.375.14t-.156.36v2q0 .203.13.344t.333.155q2.406.172 4.125 1.89t1.89 4.126q.017.21.157.34t.343.135h2q.205 0 .36-.155t.14-.376zm6 .014q-.078-2.406-.875-4.648t-2.18-4.062-3.21-3.204-4.06-2.18-4.647-.87q-.22-.017-.36.14Q4 6.813 4 7.017v2q0 .202.142.343t.344.16q3.187.11 5.906 1.74t4.352 4.35 1.742 5.908q.016.203.156.344t.344.14h2q.203 0 .36-.153.17-.14.14-.36zM24 6.5v15q0 1.86-1.32 3.18T19.5 26h-15q-1.86 0-3.18-1.32T0 21.5v-15q0-1.86 1.32-3.18T4.5 2h15q1.86 0 3.18 1.32T24 6.5z"/></symbol><symbol viewBox="0 0 22 28" id="icon-rss"><title>rss</title><path d="M6 21q0 1.25-.875 2.125T3 24t-2.125-.875T0 21t.875-2.125T3 18t2.125.875T6 21zm8 1.922q.03.438-.266.75Q13.454 24 13 24h-2.11q-.39 0-.67-.258t-.314-.648q-.344-3.578-2.883-6.117T.906 14.094q-.39-.03-.648-.313T0 13.11V11q0-.453.328-.734Q.594 10 1 10h.078q2.5.203 4.78 1.258t4.048 2.836q1.78 1.766 2.836 4.047T14 22.928zm8 .03q.03.423-.28.735Q21.437 24 21 24h-2.234q-.406 0-.695-.273t-.3-.664q-.186-3.36-1.58-6.383t-3.615-5.25-5.25-3.617T.94 6.22q-.39-.017-.664-.306T0 5.234V3q0-.438.314-.72.28-.28.688-.28h.047q4.09.203 7.83 1.875t6.65 4.595q2.922 2.903 4.594 6.645T22 22.952z"/></symbol><symbol viewBox="0 0 26 28" id="icon-search"><title>search</title><path d="M18 13q0-2.89-2.055-4.945T11 6 6.055 8.055 4 13t2.055 4.945T11 20t4.945-2.055T18 13zm8 13q0 .812-.594 1.406T24 28q-.844 0-1.406-.594l-5.36-5.344Q14.44 24 11.002 24q-2.233 0-4.272-.868t-3.516-2.344T.87 17.272 0 13t.87-4.275T3.212 5.21t3.516-2.344T11 2t4.274.866T18.79 5.21t2.344 3.516T22 13q0 3.436-1.936 6.233l5.36 5.36q.577.577.577 1.405z"/></symbol><symbol viewBox="0 0 28 28" id="icon-times-circle-o"><title>times-circle-o</title><path d="M17.14 16.86l-2.28 2.28q-.156.156-.36.156t-.358-.156L12.002 17 9.86 19.14q-.156.156-.36.156t-.358-.156l-2.28-2.28q-.157-.157-.157-.36t.156-.36L9.008 14l-2.14-2.14q-.157-.157-.157-.36t.155-.36l2.282-2.28q.156-.156.36-.156t.358.156L12 11l2.142-2.14q.156-.156.36-.156t.358.156l2.28 2.28q.157.157.157.36t-.156.36L15 14l2.14 2.14q.157.157.157.36t-.156.36zM20.5 14q0-2.312-1.14-4.266T16.264 6.64 12 5.5 7.732 6.64 4.64 9.734 3.497 14t1.14 4.266 3.095 3.094T12 22.5t4.265-1.14 3.094-3.094T20.5 14zm3.5 0q0 3.266-1.61 6.023t-4.366 4.367T12 26t-6.02-1.61-4.37-4.367T.003 14t1.61-6.023T5.977 3.61 12 2t6.024 1.61 4.367 4.367T24 14z"/></symbol><symbol viewBox="0 0 28 28" id="icon-twitter-square"><title>twitter-square</title><path d="M20 9.53q-.875.392-1.89.532 1.06-.625 1.452-1.828-1.016.594-2.094.797Q16.515 8 15.078 8q-1.36 0-2.32.96t-.962 2.32q0 .454.078.75-2.016-.108-3.78-1.015t-3-2.422q-.454.78-.454 1.656 0 1.78 1.422 2.73-.734-.018-1.563-.408v.03q0 1.173.78 2.087t1.92 1.133q-.456.125-.8.125-.203 0-.61-.064.33.983 1.165 1.624t1.897.657Q7.04 19.57 4.774 19.57q-.407 0-.78-.046 2.31 1.468 5.03 1.468 1.75 0 3.28-.555t2.625-1.486 1.883-2.14 1.17-2.53.384-2.635q0-.28-.017-.423.986-.703 1.64-1.703zm4-3.03v15q0 1.86-1.32 3.18T19.5 26h-15q-1.86 0-3.18-1.32T0 21.5v-15q0-1.86 1.32-3.18T4.5 2h15q1.86 0 3.18 1.32T24 6.5z"/></symbol><symbol viewBox="0 0 26 28" id="icon-twitter"><title>twitter</title><path d="M25.312 6.375q-1.047 1.53-2.53 2.61.015.218.015.655 0 2.03-.594 4.055t-1.805 3.883-2.883 3.29-4.03 2.28-5.05.852q-4.233 0-7.75-2.266.548.063 1.22.063 3.516 0 6.266-2.156-1.64-.03-2.933-1.002t-1.78-2.492q.515.08.952.08.67 0 1.327-.173-1.75-.36-2.898-1.742T1.69 11.1v-.064q1.06.595 2.28.642-1.03-.688-1.64-1.797t-.61-2.405q0-1.376.69-2.548 1.89 2.328 4.6 3.727t5.805 1.556q-.125-.595-.125-1.157 0-2.095 1.475-3.57T17.735 4q2.19 0 3.688 1.595 1.703-.328 3.203-1.22-.578 1.798-2.22 2.782 1.454-.156 2.907-.78z"/></symbol><symbol viewBox="0 0 28 28" id="icon-youtube-square"><title>youtube-square</title><path d="M14.36 20.36v-2.454q0-.78-.454-.78-.266 0-.516.25v3.5q.25.25.516.25.453 0 .453-.767zm2.874-1.907h1.03v-.53q0-.798-.515-.798t-.52.797v.53zm-8.92-4.156v1.094h-1.25V22H5.906v-6.61h-1.22v-1.093h3.626zm3.14 1.97V22h-1.048v-.625q-.61.703-1.188.703-.516 0-.656-.438-.094-.25-.094-.844v-4.53h1.03v4.218q0 .375.017.406.016.234.234.234.31 0 .65-.484v-4.375h1.047zM15.39 18v2.28q0 .813-.108 1.142-.187.656-.828.656-.547 0-1.062-.64v.56h-1.047v-7.702h1.047v2.516q.5-.625 1.062-.625.64 0 .828.656.11.328.11 1.156zm3.923 2.016v.14q0 .454-.03.673-.048.34-.235.62-.422.624-1.25.624-.812 0-1.266-.595-.328-.42-.328-1.344V18.12q0-.92.313-1.343.453-.593 1.25-.593t1.22.594q.327.44.327 1.345v1.188h-2.078v1.02q0 .794.53.794.376 0 .47-.406 0-.017.008-.11t.008-.258v-.337h1.062zM12.266 7.14v2.44q0 .796-.5.796t-.5-.797V7.14q0-.81.5-.81t.5.81zm8.328 11.14q0-2.765-.297-4.06-.156-.69-.672-1.15t-1.188-.538q-2.125-.234-6.438-.234-4.3 0-6.428.234-.688.078-1.195.54t-.664 1.147Q3.4 15.572 3.4 18.28q0 2.75.314 4.06.156.67.664 1.14t1.18.55q2.14.232 6.44.232t6.438-.234q.672-.077 1.18-.546t.664-1.14q.314-1.314.314-4.063zM8.797 8.11l1.406-4.626H9.03L8.235 6.53l-.828-3.046h-1.22l.376 1.078.36 1.078q.546 1.61.718 2.47v3.14H8.8V8.11zm4.515 1.265v-2.03q0-.907-.328-1.36-.453-.594-1.22-.594-.796 0-1.218.6-.328.453-.328 1.36v2.03q0 .906.328 1.36.422.593 1.22.593.765 0 1.218-.594.328-.423.328-1.36zm2.83 1.875h1.046V5.47H16.14v4.42q-.343.485-.655.485-.234 0-.25-.25-.016-.03-.016-.406V5.47h-1.05v4.577q0 .578.09.86.172.42.672.42.562 0 1.203-.702v.625zM24 6.5v15q0 1.86-1.32 3.18T19.5 26h-15q-1.86 0-3.18-1.32T0 21.5v-15q0-1.86 1.32-3.18T4.5 2h15q1.86 0 3.18 1.32T24 6.5z"/></symbol><symbol viewBox="0 0 28 28" id="icon-youtube"><title>youtube</title><path d="M15.172 19.437v3.297q0 1.047-.61 1.047-.358 0-.702-.34v-4.7q.344-.344.703-.344.61 0 .61 1.048zm5.28.016v.72h-1.405v-.72q0-1.062.703-1.062t.703 1.068zM5.36 16.047h1.67v-1.47H2.157v1.47h1.64v8.89H5.36v-8.89zm4.5 8.89h1.39V17.22H9.86v5.905q-.47.656-.892.656-.28 0-.328-.322-.016-.047-.016-.547v-5.69h-1.39v6.11q0 .765.124 1.14.187.578.906.578.75 0 1.594-.953v.844zm6.702-2.312v-3.078q0-1.14-.14-1.547-.267-.875-1.11-.875-.78 0-1.453.844v-3.397h-1.397v10.36h1.39v-.75q.704.858 1.454.858.844 0 1.11-.86.14-.42.14-1.56zm5.282-.156v-.21h-1.422q0 .798-.03.954-.11.56-.626.56-.72 0-.72-1.077v-1.36h2.798V19.73q0-1.234-.422-1.813-.61-.798-1.656-.798-1.062 0-1.672.795-.438.577-.438 1.812v2.703q0 1.235.453 1.814.603.796 1.68.796 1.126 0 1.688-.828.28-.423.33-.845.03-.14.03-.905zm-9.5-14.27V4.92q0-1.08-.672-1.08T11 4.924v3.28q0 1.094.672 1.094t.672-1.094zM23.578 19.93q0 3.656-.406 5.47-.22.92-.906 1.546t-1.594.72Q17.797 28 12 28t-8.672-.327q-.906-.094-1.602-.72t-.898-1.546q-.406-1.75-.406-5.47 0-3.655.406-5.468.22-.928.906-1.55t1.61-.737Q6.202 11.87 12 11.87t8.67.314q.903.11 1.6.734t.9 1.547q.404 1.75.404 5.468zM7.984 0h1.594l-1.89 6.234v4.234H6.123V6.234q-.22-1.156-.953-3.313Q4.594 1.318 4.156 0H5.81l1.11 4.108zm5.782 5.203v2.734q0 1.266-.438 1.844-.578.8-1.656.8-1.047 0-1.64-.794-.44-.593-.44-1.843v-2.74q0-1.25.44-1.827.593-.797 1.64-.797 1.078 0 1.656.796.438.578.438 1.828zM19 2.673v7.796h-1.422v-.86q-.828.97-1.61.97-.718 0-.92-.58-.126-.38-.126-1.17V2.67h1.422v5.734q0 .516.016.547.047.348.328.348.422 0 .89-.672v-5.95H19z"/></symbol></svg>