<?xml version="1.0" encoding="UTF-8" standalone="no"?>
<svg
   xmlns:dc="http://purl.org/dc/elements/1.1/"
   xmlns:cc="http://creativecommons.org/ns#"
   xmlns:rdf="http://www.w3.org/1999/02/22-rdf-syntax-ns#"
   xmlns:svg="http://www.w3.org/2000/svg"
   xmlns="http://www.w3.org/2000/svg"
   id="svg3012"
   version="1.1"
   viewBox="0 0 16.134287 32.973721"
   height="32.973721mm"
   width="16.134287mm">
  <defs
     id="defs3006" />
  <metadata
     id="metadata3009">
    <rdf:RDF>
      <cc:Work
         rdf:about="">
        <dc:format>image/svg+xml</dc:format>
        <dc:type
           rdf:resource="http://purl.org/dc/dcmitype/StillImage" />
        <dc:title></dc:title>
      </cc:Work>
    </rdf:RDF>
  </metadata>
  <g
     transform="translate(-118.17691,-54.483379)"
     id="layer1">
    <g
       style="fill:#000000;fill-opacity:1;stroke:#00f400;stroke-width:13.5;stroke-miterlimit:4;stroke-dasharray:none;stroke-opacity:1;paint-order:stroke fill markers"
       id="g2994"
       transform="matrix(0.35277777,0,0,-0.35277777,131.83117,83.395861)">
      <path
         d="m 0,0 c 0.26,0.517 0.012,1.91 -0.745,4.176 -0.172,0.647 -0.432,1.554 -0.776,2.719 -0.345,1.165 -0.653,2.229 -0.922,3.189 -0.271,0.961 -0.514,1.873 -0.73,2.735 -0.021,0.151 -0.102,0.61 -0.242,1.377 -0.141,0.766 -0.291,1.381 -0.453,1.846 -0.163,0.463 -0.395,0.847 -0.697,1.149 -0.432,0.431 -1.279,0.663 -2.54,0.695 -1.263,0.032 -2.526,-0.043 -3.789,-0.227 -1.262,-0.184 -2.503,-0.281 -3.722,-0.292 -1.22,-0.011 -2.025,0.179 -2.412,0.567 -0.195,0.194 -0.383,0.492 -0.568,0.89 -0.182,0.399 -0.311,0.712 -0.389,0.939 -0.075,0.227 -0.182,0.636 -0.323,1.23 -0.14,0.595 -0.22,0.923 -0.242,0.988 -1.316,4.598 -1.974,9.011 -1.975,13.241 10e-4,4.231 0.659,8.644 1.975,13.242 0.022,0.065 0.103,0.394 0.243,0.987 0.14,0.594 0.247,1.004 0.324,1.231 0.075,0.227 0.205,0.54 0.388,0.939 0.184,0.399 0.372,0.696 0.567,0.89 0.388,0.388 1.192,0.577 2.412,0.567 1.22,-0.011 2.461,-0.109 3.722,-0.292 1.263,-0.184 2.526,-0.259 3.789,-0.227 1.262,0.032 2.109,0.264 2.541,0.696 0.301,0.302 0.534,0.685 0.696,1.149 0.162,0.464 0.312,1.079 0.453,1.846 0.14,0.766 0.221,1.224 0.242,1.376 0.216,0.863 0.459,1.774 0.729,2.735 0.269,0.961 0.578,2.024 0.923,3.189 0.344,1.165 0.604,2.072 0.777,2.72 0.755,2.265 1.004,3.657 0.744,4.175 -0.086,0.216 -0.28,0.476 -0.582,0.777 -0.583,0.583 -1.452,1.236 -2.606,1.959 -1.156,0.723 -2.121,1.236 -2.899,1.538 -1.532,0.626 -3.992,0.453 -7.381,-0.517 -3.129,-0.928 -5.686,-2.385 -7.672,-4.371 -0.583,-0.582 -1.111,-1.186 -1.587,-1.813 -0.474,-0.626 -0.96,-1.381 -1.457,-2.267 -0.496,-0.884 -0.852,-1.554 -1.068,-2.006 -0.216,-0.453 -0.594,-1.273 -1.133,-2.461 -0.54,-1.186 -0.874,-1.909 -1.004,-2.169 -1.36,-2.87 -2.352,-5.654 -2.978,-8.352 -1.059,-4.467 -1.588,-9.648 -1.588,-15.54 0,-5.892 0.529,-11.073 1.587,-15.54 0.626,-2.698 1.619,-5.483 2.978,-8.354 0.13,-0.258 0.464,-0.981 1.003,-2.168 0.54,-1.187 0.918,-2.008 1.133,-2.461 0.216,-0.453 0.572,-1.123 1.067,-2.007 0.498,-0.886 0.983,-1.641 1.458,-2.268 0.475,-0.625 1.003,-1.23 1.586,-1.812 1.986,-1.986 4.543,-3.443 7.673,-4.371 3.388,-0.971 5.848,-1.143 7.381,-0.517 0.777,0.301 1.743,0.815 2.898,1.538 1.155,0.722 2.023,1.375 2.606,1.958 C -0.281,-0.476 -0.088,-0.218 0,0"
         style="fill:#000000;fill-opacity:1;fill-rule:nonzero;stroke:#00f400;stroke-width:13.5;stroke-miterlimit:4;stroke-dasharray:none;stroke-opacity:1;paint-order:stroke fill markers"
         id="path2992" />
    </g>
  </g>
</svg>
