<svg enable-background="new 0 0 322.6 130.2" viewBox="0 0 322.6 130.2" xmlns="http://www.w3.org/2000/svg"><g fill="#113050" transform="translate(0 4.5)"><path d="m230.3 118.7h-230.2c1.4 4 5.2 6.8 9.5 6.8h231.4z"/><path d="m92.4 2.3h230.2c-1.4-4-5.2-6.8-9.5-6.8h-231.4z"/></g><path d="m313.5 0h-245.1c-4 0-7.6 2.4-9.2 6-.1.3-.2.5-.2.8l-17.3 50.6-22.6 66c-1.4 4-5.2 6.7-9.4 6.7h245c4 0 7.6-2.4 9.2-6 .1-.2.2-.5.3-.8l17.3-50.6 22.6-66c1.3-4 5.1-6.7 9.4-6.7z" fill="#1d4e80" transform="translate(.002)"/></svg>