<svg xmlns="http://www.w3.org/2000/svg" width="28" height="28" viewBox="0 0 28 28"><path fill="#444" d="M20 15v-2q0-.406-.297-.703T19 12h-7.844l2.953-2.953q.292-.297.292-.703t-.297-.703l-1.423-1.42q-.28-.28-.703-.28t-.703.28L4.203 13.3q-.28.28-.28.702t.28.703l7.078 7.078q.285.282.707.282t.703-.28l1.42-1.423q.28-.282.28-.704t-.28-.703L11.155 16H19q.406 0 .703-.297T20 15zm4-1q0 3.266-1.61 6.023t-4.366 4.367T12 26t-6.02-1.61-4.37-4.367T.003 14t1.61-6.023T5.977 3.61 12 2t6.024 1.61 4.367 4.367T24 14z"/></svg>