<svg xmlns="http://www.w3.org/2000/svg" width="28" height="28" viewBox="0 0 28 28"><path fill="#444" d="M20.078 14q0-.422-.28-.703l-7.08-7.078q-.28-.287-.702-.287t-.703.28L9.89 7.643q-.28.28-.28.703t.28.703L12.845 12H5q-.406 0-.703.297T4 13v2q0 .406.297.703T5 16h7.844L9.89 18.953q-.296.297-.296.703t.297.703l1.428 1.42q.28.28.703.28t.703-.28L19.8 14.7q.28-.28.28-.7zM24 14q0 3.266-1.61 6.023t-4.366 4.367T12 26t-6.02-1.61-4.37-4.367T.003 14t1.61-6.023T5.977 3.61 12 2t6.024 1.61 4.367 4.367T24 14z"/></svg>