<svg xmlns="http://www.w3.org/2000/svg" width="28" height="28" viewBox="0 0 28 28"><path fill="#444" d="M28 11.094V23.5q0 1.03-.734 1.766T25.5 26h-23q-1.03 0-1.766-.734T0 23.5V11.094q.688.766 1.578 1.36 5.656 3.843 7.766 5.39.89.656 1.445 1.023t1.47.75 1.72.383h.03q.798 0 1.72-.383t1.477-.75 1.445-1.023q2.656-1.922 7.78-5.39.892-.61 1.564-1.36zM28 6.5q0 1.234-.766 2.36t-1.906 1.92l-7.313 5.08q-.156.108-.664.476t-.84.594-.81.508-.9.422-.78.14h-.03q-.36 0-.78-.14t-.9-.422-.81-.508-.846-.594-.663-.477q-1.423-1-4.095-2.858T2.69 10.78q-.97-.656-1.83-1.805T.003 6.842q0-1.22.648-2.03T2.508 4h23q1.016 0 1.758.732t.743 1.766z"/></svg>