<svg xmlns="http://www.w3.org/2000/svg" width="26" height="28" viewBox="0 0 26 28"><path fill="#444" d="M10 19q0 .625-.195 1.28t-.672 1.19T8 22t-1.133-.53-.672-1.19T6 19t.195-1.28.672-1.19T8 16t1.133.53.672 1.19T10 19zm10 0q0 .625-.195 1.28t-.672 1.19T18 22t-1.133-.53-.672-1.19T16 19t.195-1.28.672-1.19T18 16t1.133.53.672 1.19T20 19zm2.5 0q0-1.875-1.078-3.187T18.5 14.5q-.64 0-3.047.328Q14.343 15 13 15t-2.453-.172Q8.172 14.5 7.5 14.5q-1.844 0-2.922 1.313T3.5 19q0 1.375.5 2.398t1.266 1.61 1.906.937 2.188.46 2.328.11h2.625q1.28 0 2.328-.11t2.19-.46 1.91-.938 1.26-1.61.5-2.397zm3.5-2.75q0 3.234-.953 5.172-.594 1.203-1.648 2.078t-2.21 1.344-2.655.742-2.68.344-2.61.07q-1.22 0-2.22-.047t-2.304-.195-2.382-.47-2.14-.804-1.89-1.266T.97 21.42Q0 19.5 0 16.25q0-3.704 2.126-6.19-.422-1.28-.422-2.655 0-1.813.797-3.406 1.69 0 2.97.61t2.954 1.93Q10.72 6 13.25 6q2.31 0 4.374.5 1.64-1.282 2.922-1.892t2.953-.61q.79 1.595.79 3.407 0 1.36-.42 2.625Q26 12.53 26 16.25z"/></svg>