<svg xmlns="http://www.w3.org/2000/svg" width="28" height="28" viewBox="0 0 28 28"><path fill="#444" d="M6.156 21.125q-.125.14-.313-.047-.203-.172-.063-.297.125-.14.313.05.187.17.063.3zm-.656-.953q.14.187 0 .297-.125.09-.266-.11t0-.28q.14-.11.266.09zm-.953-.938q-.078.11-.203.03-.156-.077-.11-.186.048-.078.204-.03.156.077.11.186zm.484.532q-.09.11-.25-.047-.14-.178-.03-.25.1-.1.25.04.14.173.03.25zm2.02 1.75q-.06.187-.295.094-.265-.063-.202-.234t.298-.11q.25.08.204.25zm.986.078q0 .172-.25.172-.265.03-.265-.172 0-.172.25-.172.266-.03.266.172zm.907-.156q.03.156-.22.22t-.28-.126.22-.234q.25-.03.28.14zM24 6.5v15q0 1.86-1.32 3.18T19.5 26H16q-.25 0-.383-.016t-.305-.078-.25-.227-.078-.43v-3.74q0-1.517-.812-2.22.89-.094 1.602-.28t1.47-.61 1.265-1.04.822-1.64.32-2.352q0-1.89-1.234-3.22.58-1.42-.125-3.186-.438-.14-1.266.172t-1.437.687l-.594.38q-1.453-.406-3-.406t-3 .406q-.25-.172-.664-.422t-1.305-.6-1.343-.21Q5 8.735 5.577 10.156q-1.232 1.328-1.232 3.22 0 1.327.32 2.343t.82 1.64 1.258 1.046 1.47.61 1.6.28q-.624.562-.765 1.61-.328.155-.703.233t-.89.074-1.024-.336-.86-.978q-.298-.5-.76-.812t-.773-.374l-.313-.047q-.327 0-.452.07t-.076.18.14.22.203.184l.11.08q.342.155.68.593t.49.797l.156.36q.203.593.688.96t1.048.47 1.086.108.87-.053l.36-.063q0 .594.006 1.61t.007 1.06q0 .345-.172.524t-.343.2-.517.023H4.5q-1.858 0-3.18-1.32T0 21.495v-15q0-1.86 1.32-3.18t3.18-1.32h15q1.86 0 3.18 1.32T24 6.496z"/></svg>