<svg xmlns="http://www.w3.org/2000/svg" width="28" height="28" viewBox="0 0 28 28"><path fill="#444" d="M12.953 19.03q0 1.19-.914 1.76t-2.18.57q-.647 0-1.26-.15t-1.18-.444-.91-.828-.344-1.22q0-.718.39-1.25t1.024-.804 1.28-.39 1.32-.118q.315 0 .486.03.03.017.36.26t.404.296.36.28.383.345.297.352.266.4.14.414.07.49zm-1.156-8.514q0 .938-.516 1.555t-1.43.62q-.83 0-1.454-.66T7.5 10.52 7.22 8.86q0-.952.5-1.624t1.438-.672q.828 0 1.46.703t.907 1.578.273 1.672zM13.453 6.5l1.375-1h-4.14q-1.33 0-2.517.5T6.18 7.53t-.806 2.392q0 1.453 1.008 2.414t2.477.96q.34 0 .67-.046-.207.453-.207.844 0 .688.625 1.47-2.734.186-4.016.983-.734.453-1.18 1.14t-.445 1.485q0 .672.29 1.21t.757.884 1.077.578 1.21.328 1.197.094q.94 0 1.886-.242t1.773-.72 1.34-1.288.518-1.828q0-.766-.315-1.398t-.767-1.04-.907-.74-.765-.69-.312-.694.243-.664.587-.617.69-.656.586-.93.24-1.29q0-.94-.352-1.56T12.15 6.5h1.298zm4.547 7h2v-1h-2v-2h-1v2h-2v1h2V16h1v-2.5zm6-7v15q0 1.86-1.32 3.18T19.5 26h-15q-1.86 0-3.18-1.32T0 21.5v-15q0-1.86 1.32-3.18T4.5 2h15q1.86 0 3.18 1.32T24 6.5z"/></svg>