<svg xmlns="http://www.w3.org/2000/svg" width="26" height="28" viewBox="0 0 26 28"><path fill="#444" d="M11.484 12.437q0 .562.5 1.102t1.21 1.06 1.415 1.15 1.2 1.62.5 2.22q0 1.404-.75 2.7-1.128 1.907-3.3 2.806T7.61 26q-2.064 0-3.853-.65t-2.68-2.147Q.5 22.265.5 21.156q0-1.266.694-2.344t1.852-1.797q2.047-1.28 6.312-1.563-.5-.656-.742-1.156t-.242-1.14q0-.563.328-1.33-.72.064-1.062.064-2.312 0-3.898-1.508t-1.586-3.82q0-1.28.562-2.484T4.265 2.03Q5.468 1 7.117.5t3.398-.5h6.53L14.89 1.375h-2.047q1.156.984 1.75 2.078t.594 2.5q0 1.125-.383 2.023t-.922 1.453-1.086 1.01-.93.96-.383 1.032zm-2.28-1.5q.593 0 1.218-.257t1.03-.68q.83-.89.83-2.484 0-.906-.267-1.953t-.758-2.023-1.32-1.617-1.828-.64q-.66 0-1.29.304t-1.028.82q-.734.922-.734 2.5 0 .72.156 1.523t.49 1.61.813 1.444T7.69 10.53t1.508.41zm.03 13.64q.906 0 1.742-.202t1.547-.61 1.14-1.14.43-1.703q0-.39-.108-.766t-.227-.656-.422-.648-.46-.547-.603-.54-.57-.452-.648-.47-.57-.405q-.25-.03-.75-.03-.828 0-1.64.108t-1.68.39-1.517.72-1.07 1.164-.422 1.648q0 1.094.547 1.93t1.43 1.297 1.86.688 1.99.227zM21.89 10.892h3.33v1.688h-3.33V16h-1.64v-3.422h-3.313V10.89h3.313V7.5h1.64v3.39z"/></svg>