<svg xmlns="http://www.w3.org/2000/svg" width="28" height="28" viewBox="0 0 28 28"><path fill="#444" d="M21.28 22.28V12.157h-2.108q.313.984.313 2.047 0 1.97-1 3.633t-2.72 2.633-3.75.968q-3.077 0-5.265-2.117t-2.188-5.11q0-1.062.313-2.047H2.672v10.125q0 .406.273.68t.68.273h16.703q.39 0 .672-.272t.28-.68zm-4.436-8.327q0-1.937-1.414-3.305T12.016 9.28q-1.984 0-3.398 1.368t-1.414 3.305 1.414 3.305 3.398 1.367q2 0 3.414-1.367t1.414-3.305zm4.437-5.625V5.75q0-.438-.31-.758t-.763-.32h-2.72q-.452 0-.765.32t-.313.758v2.578q0 .453.312.766t.764.313h2.72q.452 0 .765-.313t.31-.766zM24 5.078v17.844q0 1.266-.906 2.172T20.922 26H3.078q-1.266 0-2.172-.906T0 22.922V5.078q0-1.266.906-2.172T3.078 2h17.844q1.266 0 2.172.906T24 5.078z"/></svg>