<svg xmlns="http://www.w3.org/2000/svg" width="28" height="28" viewBox="0 0 28 28"><path fill="#444" d="M3.703 22.094h3.61V11.25h-3.61v10.844zM7.547 7.906q-.016-.812-.562-1.344t-1.453-.53-1.477.53-.57 1.344q0 .797.555 1.336t1.445.54H5.5q.923 0 1.485-.54t.562-1.336zm9.14 14.188h3.61v-6.22q0-2.405-1.14-3.64T16.14 11q-2.125 0-3.266 1.828h.03V11.25H9.297q.047 1.03 0 10.844h3.61v-6.062q0-.594.108-.875.234-.547.703-.93t1.156-.383q1.813 0 1.813 2.453v5.797zM24 6.5v15q0 1.86-1.32 3.18T19.5 26h-15q-1.86 0-3.18-1.32T0 21.5v-15q0-1.86 1.32-3.18T4.5 2h15q1.86 0 3.18 1.32T24 6.5z"/></svg>