<svg xmlns="http://www.w3.org/2000/svg" width="28" height="28" viewBox="0 0 28 28"><path fill="#444" d="M19.5 2q1.86 0 3.18 1.32T24 6.5v15q0 1.86-1.32 3.18T19.5 26H8.172Q9.5 24.094 9.86 22.72q.14-.532.827-3.267.328.61 1.148 1.047t1.758.438q2.828 0 4.617-2.305T20 12.797q0-1.313-.548-2.54t-1.508-2.17T15.56 6.57 12.484 6q-1.625 0-3.04.445T7.054 7.64t-1.68 1.71-1.04 2T4 13.42q0 1.595.617 2.813t1.82 1.72q.203.077.367 0t.227-.298q.16-.688.238-.953.094-.36-.172-.656-.78-.97-.78-2.344 0-2.344 1.617-4.008T12.16 8.03q2.327 0 3.632 1.266t1.303 3.28q0 2.626-1.055 4.47t-2.71 1.844q-.94 0-1.518-.68t-.36-1.617q.126-.53.415-1.445t.46-1.594.173-1.164q0-.766-.414-1.273t-1.18-.508q-.953 0-1.617.88t-.667 2.18q0 1.122.375 1.89l-1.53 6.47q-.38 1.56-.113 3.97H4.5q-1.858 0-3.18-1.32T0 21.5v-15q0-1.86 1.32-3.18T4.5 2h15z"/></svg>