<svg xmlns="http://www.w3.org/2000/svg" width="20" height="28" viewBox="0 0 20 28"><path fill="#444" d="M0 9.328q0-1.687.586-3.18t1.617-2.602 2.375-1.922 2.89-1.22T10.626 0q2.47 0 4.594 1.038t3.45 3.022T20 8.546q0 1.5-.297 2.938t-.938 2.766-1.563 2.335-2.266 1.61-2.953.6q-1.062 0-2.11-.5t-1.5-1.374q-.155.61-.437 1.76T7.57 20.17t-.32 1.11-.41 1.108-.5.978-.72 1.21-.97 1.354l-.22.08-.14-.157q-.234-2.453-.234-2.94 0-1.436.336-3.226t1.04-4.49.81-3.173q-.5-1.016-.5-2.64 0-1.3.813-2.44T8.62 5.8q.953 0 1.484.632t.53 1.602q0 1.03-.687 2.983t-.69 2.922q0 .98.704 1.63t1.706.65q.86 0 1.594-.39t1.227-1.066.873-1.484.594-1.726.313-1.734.103-1.555q0-2.703-1.71-4.21T10.2 2.542q-3.124 0-5.218 2.024T2.888 9.7q0 .688.195 1.328t.422 1.016.422.71.195.478q0 .438-.234 1.14t-.578.704q-.03 0-.266-.047-.797-.24-1.414-.88T.677 12.67.17 10.99t-.173-1.664z"/></svg>