<svg xmlns="http://www.w3.org/2000/svg" width="22" height="28" viewBox="0 0 22 28"><path fill="#444" d="M6 21q0 1.25-.875 2.125T3 24t-2.125-.875T0 21t.875-2.125T3 18t2.125.875T6 21zm8 1.922q.03.438-.266.75Q13.454 24 13 24h-2.11q-.39 0-.67-.258t-.314-.648q-.344-3.578-2.883-6.117T.906 14.094q-.39-.03-.648-.313T0 13.11V11q0-.453.328-.734Q.594 10 1 10h.078q2.5.203 4.78 1.258t4.048 2.836q1.78 1.766 2.836 4.047T14 22.928zm8 .03q.03.423-.28.735Q21.437 24 21 24h-2.234q-.406 0-.695-.273t-.3-.664q-.186-3.36-1.58-6.383t-3.615-5.25-5.25-3.617T.94 6.22q-.39-.017-.664-.306T0 5.234V3q0-.438.314-.72.28-.28.688-.28h.047q4.09.203 7.83 1.875t6.65 4.595q2.922 2.903 4.594 6.645T22 22.952z"/></svg>