<svg xmlns="http://www.w3.org/2000/svg" width="28" height="28" viewBox="0 0 28 28"><path fill="#444" d="M17.14 16.86l-2.28 2.28q-.156.156-.36.156t-.358-.156L12.002 17 9.86 19.14q-.156.156-.36.156t-.358-.156l-2.28-2.28q-.157-.157-.157-.36t.156-.36L9.008 14l-2.14-2.14q-.157-.157-.157-.36t.155-.36l2.282-2.28q.156-.156.36-.156t.358.156L12 11l2.142-2.14q.156-.156.36-.156t.358.156l2.28 2.28q.157.157.157.36t-.156.36L15 14l2.14 2.14q.157.157.157.36t-.156.36zM20.5 14q0-2.312-1.14-4.266T16.264 6.64 12 5.5 7.732 6.64 4.64 9.734 3.497 14t1.14 4.266 3.095 3.094T12 22.5t4.265-1.14 3.094-3.094T20.5 14zm3.5 0q0 3.266-1.61 6.023t-4.366 4.367T12 26t-6.02-1.61-4.37-4.367T.003 14t1.61-6.023T5.977 3.61 12 2t6.024 1.61 4.367 4.367T24 14z"/></svg>