<svg xmlns="http://www.w3.org/2000/svg" width="28" height="28" viewBox="0 0 28 28"><path fill="#444" d="M20 9.53q-.875.392-1.89.532 1.06-.625 1.452-1.828-1.016.594-2.094.797Q16.515 8 15.078 8q-1.36 0-2.32.96t-.962 2.32q0 .454.078.75-2.016-.108-3.78-1.015t-3-2.422q-.454.78-.454 1.656 0 1.78 1.422 2.73-.734-.018-1.563-.408v.03q0 1.173.78 2.087t1.92 1.133q-.456.125-.8.125-.203 0-.61-.064.33.983 1.165 1.624t1.897.657Q7.04 19.57 4.774 19.57q-.407 0-.78-.046 2.31 1.468 5.03 1.468 1.75 0 3.28-.555t2.625-1.486 1.883-2.14 1.17-2.53.384-2.635q0-.28-.017-.423.986-.703 1.64-1.703zm4-3.03v15q0 1.86-1.32 3.18T19.5 26h-15q-1.86 0-3.18-1.32T0 21.5v-15q0-1.86 1.32-3.18T4.5 2h15q1.86 0 3.18 1.32T24 6.5z"/></svg>