<svg xmlns="http://www.w3.org/2000/svg" width="28" height="28" viewBox="0 0 28 28"><path fill="#444" d="M14.36 20.36v-2.454q0-.78-.454-.78-.266 0-.516.25v3.5q.25.25.516.25.453 0 .453-.767zm2.874-1.907h1.03v-.53q0-.798-.515-.798t-.52.797v.53zm-8.92-4.156v1.094h-1.25V22H5.906v-6.61h-1.22v-1.093h3.626zm3.14 1.97V22h-1.048v-.625q-.61.703-1.188.703-.516 0-.656-.438-.094-.25-.094-.844v-4.53h1.03v4.218q0 .375.017.406.016.234.234.234.31 0 .65-.484v-4.375h1.047zM15.39 18v2.28q0 .813-.108 1.142-.187.656-.828.656-.547 0-1.062-.64v.56h-1.047v-7.702h1.047v2.516q.5-.625 1.062-.625.64 0 .828.656.11.328.11 1.156zm3.923 2.016v.14q0 .454-.03.673-.048.34-.235.62-.422.624-1.25.624-.812 0-1.266-.595-.328-.42-.328-1.344V18.12q0-.92.313-1.343.453-.593 1.25-.593t1.22.594q.327.44.327 1.345v1.188h-2.078v1.02q0 .794.53.794.376 0 .47-.406 0-.017.008-.11t.008-.258v-.337h1.062zM12.266 7.14v2.44q0 .796-.5.796t-.5-.797V7.14q0-.81.5-.81t.5.81zm8.328 11.14q0-2.765-.297-4.06-.156-.69-.672-1.15t-1.188-.538q-2.125-.234-6.438-.234-4.3 0-6.428.234-.688.078-1.195.54t-.664 1.147Q3.4 15.572 3.4 18.28q0 2.75.314 4.06.156.67.664 1.14t1.18.55q2.14.232 6.44.232t6.438-.234q.672-.077 1.18-.546t.664-1.14q.314-1.314.314-4.063zM8.797 8.11l1.406-4.626H9.03L8.235 6.53l-.828-3.046h-1.22l.376 1.078.36 1.078q.546 1.61.718 2.47v3.14H8.8V8.11zm4.515 1.265v-2.03q0-.907-.328-1.36-.453-.594-1.22-.594-.796 0-1.218.6-.328.453-.328 1.36v2.03q0 .906.328 1.36.422.593 1.22.593.765 0 1.218-.594.328-.423.328-1.36zm2.83 1.875h1.046V5.47H16.14v4.42q-.343.485-.655.485-.234 0-.25-.25-.016-.03-.016-.406V5.47h-1.05v4.577q0 .578.09.86.172.42.672.42.562 0 1.203-.702v.625zM24 6.5v15q0 1.86-1.32 3.18T19.5 26h-15q-1.86 0-3.18-1.32T0 21.5v-15q0-1.86 1.32-3.18T4.5 2h15q1.86 0 3.18 1.32T24 6.5z"/></svg>