<svg xmlns="http://www.w3.org/2000/svg" width="792" height="296.75" viewBox="0 0 792 296.75"><path fill="#DD5A6F" d="M40 0h712c22.092 0 40 17.908 40 40v216.75c0 22.092-17.908 40-40 40h-712c-22.092 0-40-17.908-40-40v-216.75c0-22.092 17.908-40 40-40z"/><path fill="#fff" d="M159.85 217.372c18.876 0 28.236-9.984 28.236-22.152 0-29.016-47.424-17.472-47.424-36.348 0-7.8 7.02-13.729 18.72-13.729 9.984 0 18.097 4.057 22.464 9.984l4.524-5.771c-5.46-6.084-14.04-11.076-26.988-11.076-17.004 0-26.832 9.359-26.832 20.903 0 27.145 47.58 15.444 47.58 36.036 0 8.736-7.488 15.288-20.124 15.288-10.607 0-19.5-4.992-24.336-11.076l-4.836 5.929c7.488 8.424 16.848 12.012 29.016 12.012zm105.144-1.872v-53.04c0-16.848-12.168-24.18-27.456-24.18-12.48 0-21.216 4.212-29.016 12.636l4.523 5.616c6.864-7.8 14.196-11.076 23.712-11.076 11.076 0 20.124 6.084 20.124 17.316v15.287c-6.552-7.332-15.132-10.764-25.584-10.764-13.104 0-26.364 8.58-26.364 24.96 0 16.225 13.416 25.116 26.364 25.116 10.452 0 18.876-3.432 25.584-10.764v8.892h8.113v.001zm-30.888-4.524c-12.324 0-20.593-7.956-20.593-18.563 0-10.764 8.269-18.72 20.593-18.72 9.048 0 17.472 3.432 22.775 10.451v16.536c-5.303 6.864-13.727 10.296-22.775 10.296zm78.624 6.396c18.875 0 28.235-9.984 28.235-22.152 0-29.016-47.424-17.472-47.424-36.348 0-7.8 7.021-13.729 18.72-13.729 9.984 0 18.097 4.057 22.464 9.984l4.524-5.771c-5.46-6.084-14.04-11.076-26.988-11.076-17.004 0-26.832 9.359-26.832 20.903 0 27.145 47.58 15.444 47.58 36.036 0 8.736-7.488 15.288-20.124 15.288-10.607 0-19.5-4.992-24.336-11.076l-4.836 5.929c7.489 8.424 16.849 12.012 29.017 12.012zm71.604 0c18.876 0 28.236-9.984 28.236-22.152 0-29.016-47.424-17.472-47.424-36.348 0-7.8 7.02-13.729 18.72-13.729 9.983 0 18.096 4.057 22.464 9.984l4.523-5.771c-5.459-6.084-14.039-11.076-26.987-11.076-17.004 0-26.832 9.359-26.832 20.903 0 27.145 47.58 15.444 47.58 36.036 0 8.736-7.488 15.288-20.124 15.288-10.608 0-19.5-4.992-24.336-11.076l-4.836 5.929c7.488 8.424 16.848 12.012 29.016 12.012zm-279.07-79.067c-.386 1.16-.819 2.32-1.304 3.48-.483 1.16-1.04 2.175-1.667 3.045-.63.87-1.33 1.521-2.103 1.957-.773.436-1.596.508-2.466.218-1.159-.193-1.812-1.04-1.957-2.537-.146-1.5.024-2.973.508-4.423.677-2.32 1.667-5.39 2.972-9.207 1.306-3.82 2.804-8 4.496-12.543 1.689-4.543 3.479-9.256 5.365-14.138 1.885-4.88 3.696-9.545 5.437-13.992s3.335-8.482 4.785-12.108c1.45-3.625 2.562-6.451 3.335-8.481.29-.58.725-1.063 1.305-1.45s1.185-.58 1.813-.58c.628 0 1.256.193 1.885.58.628.387 1.135 1.015 1.522 1.885.772 2.03.821 4.013.145 5.945-.677 1.547-1.643 3.939-2.9 7.177-1.257 3.24-2.682 6.888-4.277 10.948-1.595 4.06-3.263 8.362-5.002 12.905-1.74 4.543-3.383 8.87-4.931 12.978-1.547 4.108-2.947 7.805-4.205 11.092-1.257 3.286-2.175 5.702-2.756 7.249zm77.286-36.395c-1.933-1.45-4.036-2.997-6.308-4.641-2.271-1.643-4.664-3.335-7.177-5.074 1.643 5.896 3.383 11.503 5.22 16.819.29 1.16.17 2.176-.362 3.045-.532.87-1.185 1.306-1.958 1.306-1.257-.193-2.537-.773-3.843-1.74-1.305-.967-2.2-2.127-2.682-3.48-.388-.869-.87-2.271-1.45-4.204-.58-1.934-1.257-4.205-2.03-6.815-1.643 2.417-3.166 4.785-4.567 7.105-1.401 2.319-2.729 4.543-3.987 6.67-.773 1.062-1.644 1.667-2.61 1.812s-1.691-.073-2.175-.653c-.677-1.062-1.087-2.439-1.233-4.133-.145-1.689.12-3.117.798-4.276.483-.773 1.354-2.176 2.61-4.205 1.257-2.03 2.803-4.398 4.64-7.105-2.029.483-4.012.99-5.944 1.522-1.934.531-3.867 1.04-5.8 1.522-1.16.193-2.176 0-3.046-.58-.869-.58-1.257-1.257-1.159-2.029.29-1.258.941-2.393 1.957-3.407 1.016-1.017 2.199-1.716 3.553-2.104.967-.29 2.537-.699 4.713-1.232 2.175-.53 4.664-1.135 7.467-1.812-1.933-1.16-3.842-2.344-5.728-3.552-1.885-1.21-3.794-2.345-5.728-3.408-1.062-.677-1.667-1.547-1.812-2.609-.146-1.063.073-1.837.652-2.32 1.063-.677 2.345-.99 3.844-.942 1.498.048 2.827.46 3.986 1.232.968.482 2.32 1.305 4.061 2.465-.29-1.643-.532-3.214-.726-4.712-.192-1.5-.338-2.925-.435-4.278-.097-1.062.145-1.981.725-2.755.58-.772 1.257-1.208 2.03-1.305.677-.193 1.498.023 2.465.653.967.628 1.692 1.812 2.175 3.552.388 1.837.822 3.722 1.306 5.654.482 1.934.967 4.013 1.449 6.235 1.934-2.61 3.818-5.075 5.655-7.395 1.837-2.32 3.577-4.303 5.22-5.945.773-.773 1.644-1.208 2.61-1.305.967-.098 1.74.145 2.32.725.482.387.846 1.16 1.088 2.32.24 1.16-.17 2.465-1.233 3.915-1.062 1.449-2.271 3.069-3.625 4.857-1.353 1.788-2.755 3.697-4.205 5.728 2.514-.483 4.979-.847 7.396-1.088 2.417-.24 4.688-.41 6.815-.508 1.062 0 1.981.193 2.755.58.772.388 1.208.968 1.305 1.74.097.677-.193 1.498-.87 2.465s-1.885 1.596-3.625 1.886c-1.643.289-3.407.579-5.292.869-1.886.29-3.795.628-5.728 1.016 2.223 1.643 4.302 3.262 6.234 4.857 1.934 1.596 3.723 3.117 5.365 4.567.773.773 1.28 1.57 1.523 2.392.239.822.119 1.57-.363 2.248-.483.483-1.305.822-2.465 1.016-1.161.192-2.418-.194-3.771-1.161zm58.87 0c-1.933-1.45-4.036-2.997-6.307-4.641-2.272-1.643-4.665-3.335-7.179-5.074 1.644 5.896 3.384 11.503 5.221 16.819.29 1.16.17 2.176-.363 3.045-.53.87-1.184 1.306-1.957 1.306-1.257-.193-2.537-.773-3.843-1.74-1.305-.967-2.2-2.127-2.683-3.48-.387-.869-.869-2.271-1.449-4.204-.58-1.934-1.257-4.205-2.03-6.815-1.643 2.417-3.166 4.785-4.568 7.105-1.399 2.319-2.729 4.543-3.986 6.67-.773 1.062-1.644 1.667-2.61 1.812s-1.692-.073-2.175-.653c-.678-1.062-1.087-2.439-1.233-4.133-.145-1.689.12-3.117.798-4.276.483-.773 1.354-2.176 2.61-4.205 1.257-2.03 2.803-4.398 4.64-7.105-2.029.483-4.012.99-5.944 1.522-1.934.531-3.867 1.04-5.801 1.522-1.159.193-2.175 0-3.045-.58s-1.257-1.257-1.159-2.029c.289-1.258.941-2.393 1.957-3.407 1.016-1.017 2.2-1.716 3.553-2.104.967-.29 2.537-.699 4.712-1.232 2.176-.53 4.665-1.135 7.468-1.812-1.933-1.16-3.842-2.344-5.727-3.552-1.887-1.21-3.795-2.345-5.729-3.408-1.062-.677-1.667-1.547-1.812-2.609-.146-1.063.072-1.837.652-2.32 1.063-.677 2.345-.99 3.844-.942 1.498.048 2.826.46 3.986 1.232.967.482 2.32 1.305 4.061 2.465-.29-1.643-.532-3.214-.726-4.712-.192-1.5-.338-2.925-.435-4.278-.098-1.062.145-1.981.725-2.755.58-.772 1.257-1.208 2.03-1.305.677-.193 1.498.023 2.465.653.967.628 1.692 1.812 2.175 3.552.388 1.837.822 3.722 1.306 5.654.482 1.934.967 4.013 1.449 6.235 1.934-2.61 3.818-5.075 5.655-7.395 1.837-2.32 3.577-4.303 5.22-5.945.773-.773 1.644-1.208 2.61-1.305.967-.098 1.74.145 2.32.725.482.387.846 1.16 1.087 2.32.242 1.16-.17 2.465-1.232 3.915-1.062 1.449-2.271 3.069-3.625 4.857-1.353 1.788-2.755 3.697-4.205 5.728 2.514-.483 4.979-.847 7.396-1.088 2.417-.24 4.688-.41 6.814-.508 1.063 0 1.982.193 2.756.58.772.388 1.207.968 1.305 1.74.097.677-.193 1.498-.87 2.465s-1.885 1.596-3.625 1.886c-1.644.289-3.407.579-5.292.869-1.886.29-3.795.628-5.729 1.016 2.224 1.643 4.303 3.262 6.235 4.857s3.722 3.117 5.365 4.567c.772.773 1.28 1.57 1.522 2.392.24.822.12 1.57-.362 2.248-.483.483-1.306.822-2.465 1.016-1.161.192-2.418-.194-3.771-1.161zm221.59 116.59c25.376 0 43.066-16.104 43.066-40.748 0-24.4-17.69-40.626-43.188-40.626h-32.086v81.374h32.208zm-.122-15.25h-14.762v-50.874h14.884c16.592 0 25.376 11.102 25.376 25.376 0 13.908-9.394 25.498-25.498 25.498zm94.184 16.714c24.521 0 42.456-17.567 42.456-42.09s-17.935-42.09-42.456-42.09c-24.645 0-42.578 17.567-42.578 42.09s17.934 42.09 42.578 42.09zm0-15.372c-15.128 0-24.767-11.59-24.767-26.718 0-15.25 9.639-26.718 24.767-26.718 15.006 0 24.644 11.468 24.644 26.718 0 15.128-9.638 26.718-24.644 26.718zm94.184 15.372c17.812 0 28.182-9.882 33.916-20.008l-14.884-7.198c-3.416 6.588-10.736 11.834-19.032 11.834-14.884 0-25.62-11.346-25.62-26.718s10.736-26.718 25.62-26.718c8.296 0 15.616 5.246 19.032 11.834l14.884-7.32c-5.734-10.248-16.104-19.886-33.916-19.886-24.521 0-43.432 16.958-43.432 42.09 0 25.01 18.91 42.09 43.432 42.09z"/></svg>