<svg xmlns="http://www.w3.org/2000/svg" width="431.5" height="431.5" viewBox="0 0 431.5 431.5"><path fill="#5C4863" d="M112.1 231.372c18.876 0 28.236-9.983 28.236-22.152 0-29.016-47.424-17.472-47.424-36.348 0-7.8 7.02-13.728 18.72-13.728 9.984 0 18.096 4.056 22.464 9.984l4.524-5.772c-5.46-6.084-14.04-11.076-26.988-11.076-17.004 0-26.832 9.36-26.832 20.904 0 27.144 47.58 15.444 47.58 36.036 0 8.736-7.488 15.288-20.124 15.288-10.608 0-19.5-4.992-24.336-11.076l-4.836 5.928c7.488 8.424 16.848 12.012 29.016 12.012zm105.144-1.872v-53.04c0-16.848-12.168-24.18-27.456-24.18-12.48 0-21.216 4.212-29.016 12.636l4.524 5.616c6.864-7.8 14.196-11.076 23.712-11.076 11.076 0 20.124 6.084 20.124 17.316v15.288c-6.552-7.332-15.132-10.764-25.584-10.764-13.104 0-26.364 8.58-26.364 24.96 0 16.225 13.416 25.116 26.364 25.116 10.452 0 18.876-3.433 25.584-10.765v8.893h8.112zm-30.888-4.523c-12.324 0-20.592-7.957-20.592-18.564 0-10.764 8.268-18.72 20.592-18.72 9.048 0 17.472 3.432 22.776 10.452v16.536c-5.304 6.863-13.728 10.296-22.776 10.296zm78.624 6.395c18.876 0 28.235-9.983 28.235-22.152 0-29.016-47.424-17.472-47.424-36.348 0-7.8 7.02-13.728 18.72-13.728 9.984 0 18.097 4.056 22.464 9.984l4.524-5.772c-5.46-6.084-14.04-11.076-26.988-11.076-17.004 0-26.832 9.36-26.832 20.904 0 27.144 47.58 15.444 47.58 36.036 0 8.736-7.488 15.288-20.124 15.288-10.607 0-19.5-4.992-24.336-11.076l-4.836 5.928c7.489 8.424 16.849 12.012 29.017 12.012zm71.604 0c18.876 0 28.236-9.983 28.236-22.152 0-29.016-47.424-17.472-47.424-36.348 0-7.8 7.02-13.728 18.72-13.728 9.983 0 18.096 4.056 22.464 9.984l4.523-5.772c-5.46-6.084-14.039-11.076-26.987-11.076-17.004 0-26.832 9.36-26.832 20.904 0 27.144 47.58 15.444 47.58 36.036 0 8.736-7.488 15.288-20.124 15.288-10.608 0-19.5-4.992-24.336-11.076l-4.836 5.928c7.488 8.424 16.848 12.012 29.016 12.012zm-213.704 115.128c28.288 0 48.008-17.952 48.008-45.424 0-27.2-19.72-45.288-48.144-45.288h-35.768v90.712h35.904zm-.136-17h-16.456v-56.712h16.592c18.496 0 28.288 12.376 28.288 28.288 0 15.504-10.472 28.424-28.424 28.424zm104.992 18.632c27.336 0 47.328-19.584 47.328-46.92s-19.992-46.92-47.328-46.92c-27.472 0-47.464 19.584-47.464 46.92s19.992 46.92 47.464 46.92zm0-17.136c-16.864 0-27.608-12.92-27.608-29.784 0-17 10.744-29.784 27.608-29.784 16.728 0 27.472 12.784 27.472 29.784 0 16.864-10.744 29.784-27.472 29.784zm104.993 17.136c19.855 0 31.416-11.016 37.808-22.304l-16.592-8.024c-3.809 7.345-11.969 13.192-21.216 13.192-16.593 0-28.561-12.648-28.561-29.784s11.968-29.784 28.561-29.784c9.247 0 17.407 5.848 21.216 13.192l16.592-8.16c-6.393-11.424-17.952-22.168-37.808-22.168-27.337 0-48.416 18.903-48.416 46.92-.001 27.88 21.079 46.92 48.416 46.92z"/><path fill="#DD5A6F" d="M57.515 152.305c-.387 1.16-.822 2.32-1.305 3.48-.483 1.16-1.04 2.175-1.668 3.045s-1.33 1.522-2.102 1.957c-.773.436-1.595.508-2.465.218-1.16-.193-1.812-1.04-1.958-2.538-.145-1.498.025-2.972.508-4.422.677-2.32 1.667-5.39 2.972-9.208 1.306-3.818 2.804-8 4.495-12.542 1.692-4.543 3.48-9.256 5.365-14.138 1.886-4.88 3.698-9.545 5.438-13.992 1.74-4.447 3.335-8.482 4.785-12.108 1.45-3.625 2.562-6.452 3.335-8.482.29-.58.725-1.063 1.305-1.45s1.184-.58 1.813-.58c.628 0 1.256.193 1.885.58.628.387 1.135 1.015 1.522 1.885.773 2.03.822 4.012.145 5.945-.677 1.547-1.643 3.94-2.9 7.177-1.257 3.24-2.682 6.888-4.277 10.948-1.596 4.06-3.263 8.362-5.003 12.905-1.74 4.543-3.383 8.87-4.93 12.977-1.547 4.11-2.948 7.806-4.205 11.093-1.257 3.287-2.175 5.703-2.755 7.25zm77.285-36.395c-1.933-1.45-4.036-2.997-6.308-4.64-2.27-1.643-4.664-3.335-7.177-5.075 1.643 5.897 3.383 11.503 5.22 16.82.29 1.16.17 2.175-.363 3.045-.53.87-1.184 1.305-1.957 1.305-1.257-.193-2.537-.773-3.843-1.74-1.305-.967-2.2-2.127-2.682-3.48-.387-.87-.87-2.272-1.45-4.205-.58-1.933-1.257-4.205-2.03-6.815-1.643 2.417-3.166 4.785-4.568 7.105-1.4 2.32-2.73 4.543-3.987 6.67-.773 1.063-1.643 1.667-2.61 1.812-.967.146-1.692-.072-2.175-.652-.677-1.063-1.087-2.44-1.233-4.133-.145-1.69.12-3.117.798-4.277.483-.773 1.353-2.175 2.61-4.205 1.257-2.03 2.803-4.398 4.64-7.105-2.03.483-4.012.99-5.945 1.522-1.933.532-3.867 1.04-5.8 1.523-1.16.193-2.175 0-3.045-.58-.87-.58-1.257-1.257-1.16-2.03.29-1.257.942-2.392 1.957-3.407 1.016-1.016 2.2-1.716 3.553-2.103.967-.29 2.537-.7 4.712-1.232 2.176-.532 4.665-1.136 7.468-1.813-1.933-1.16-3.842-2.344-5.728-3.552-1.885-1.21-3.794-2.345-5.727-3.408-1.063-.677-1.667-1.547-1.813-2.61-.145-1.063.073-1.837.653-2.32 1.063-.677 2.344-.99 3.842-.942 1.5.048 2.828.46 3.988 1.232.967.483 2.32 1.305 4.06 2.465-.29-1.643-.532-3.214-.725-4.712-.193-1.5-.338-2.925-.435-4.278-.097-1.063.145-1.982.725-2.755s1.257-1.208 2.03-1.305c.677-.193 1.498.024 2.465.653.967.628 1.692 1.812 2.175 3.552.387 1.837.822 3.722 1.305 5.655.483 1.933.967 4.012 1.45 6.235 1.933-2.61 3.818-5.075 5.655-7.395 1.837-2.32 3.577-4.302 5.22-5.945.773-.773 1.643-1.208 2.61-1.305.967-.097 1.74.145 2.32.725.483.387.846 1.16 1.087 2.32.242 1.16-.17 2.465-1.232 3.915-1.063 1.45-2.272 3.07-3.625 4.858-1.353 1.788-2.755 3.697-4.205 5.727 2.513-.483 4.978-.846 7.395-1.087 2.417-.242 4.688-.41 6.815-.508 1.063 0 1.982.193 2.755.58.773.387 1.208.967 1.305 1.74.097.677-.193 1.498-.87 2.465-.677.967-1.885 1.595-3.625 1.885-1.643.29-3.407.58-5.293.87-1.885.29-3.794.628-5.727 1.015 2.223 1.643 4.302 3.262 6.235 4.858 1.933 1.595 3.722 3.117 5.365 4.567.773.773 1.28 1.57 1.522 2.393.242.82.12 1.57-.362 2.247-.483.483-1.305.822-2.465 1.015-1.16.193-2.417-.193-3.77-1.16zm58.87 0c-1.933-1.45-4.036-2.997-6.308-4.64-2.27-1.643-4.664-3.335-7.177-5.075 1.643 5.897 3.383 11.503 5.22 16.82.29 1.16.17 2.175-.363 3.045-.53.87-1.184 1.305-1.957 1.305-1.257-.193-2.537-.773-3.843-1.74-1.305-.967-2.2-2.127-2.682-3.48-.387-.87-.87-2.272-1.45-4.205s-1.257-4.205-2.03-6.815c-1.643 2.417-3.166 4.785-4.568 7.105-1.4 2.32-2.73 4.543-3.987 6.67-.773 1.063-1.643 1.667-2.61 1.812-.967.146-1.692-.072-2.175-.652-.677-1.063-1.087-2.44-1.233-4.133-.145-1.69.12-3.117.798-4.277.483-.773 1.353-2.175 2.61-4.205 1.257-2.03 2.803-4.398 4.64-7.105-2.03.483-4.012.99-5.945 1.522-1.933.532-3.867 1.04-5.8 1.523-1.16.193-2.175 0-3.045-.58-.87-.58-1.257-1.257-1.16-2.03.29-1.257.942-2.392 1.957-3.407 1.016-1.016 2.2-1.716 3.553-2.103.967-.29 2.537-.7 4.712-1.232 2.176-.532 4.665-1.136 7.468-1.813-1.933-1.16-3.842-2.344-5.728-3.552-1.885-1.21-3.794-2.345-5.727-3.408-1.063-.677-1.667-1.547-1.813-2.61-.145-1.063.073-1.837.653-2.32 1.063-.677 2.344-.99 3.842-.942 1.5.048 2.828.46 3.988 1.232.967.483 2.32 1.305 4.06 2.465-.29-1.643-.532-3.214-.725-4.712-.193-1.5-.338-2.925-.435-4.278-.097-1.063.145-1.982.725-2.755.58-.773 1.257-1.208 2.03-1.305.677-.193 1.498.024 2.465.653.967.628 1.692 1.812 2.175 3.552.387 1.837.822 3.722 1.305 5.655s.967 4.012 1.45 6.235c1.933-2.61 3.818-5.075 5.655-7.395 1.837-2.32 3.577-4.302 5.22-5.945.773-.773 1.643-1.208 2.61-1.305.967-.097 1.74.145 2.32.725.483.387.846 1.16 1.087 2.32.242 1.16-.17 2.465-1.232 3.915-1.063 1.45-2.272 3.07-3.625 4.858-1.353 1.788-2.755 3.697-4.205 5.727 2.513-.483 4.978-.846 7.395-1.087 2.417-.242 4.688-.41 6.815-.508 1.063 0 1.982.193 2.755.58.773.387 1.208.967 1.305 1.74.097.677-.193 1.498-.87 2.465-.677.967-1.885 1.595-3.625 1.885-1.643.29-3.407.58-5.293.87-1.885.29-3.794.628-5.727 1.015 2.223 1.643 4.302 3.262 6.235 4.858 1.933 1.595 3.722 3.117 5.365 4.567.773.773 1.28 1.57 1.522 2.393.242.82.12 1.57-.362 2.247-.483.483-1.305.822-2.465 1.015-1.16.193-2.417-.193-3.77-1.16z"/></svg>